<svg xmlns="http://www.w3.org/2000/svg">
  <defs>
    <!-- Email -->
    <symbol id="email" viewBox="0 0 512 512">
      <path d="M64 112c-8.8 0-16 7.2-16 16v22.1L220.5 291.7c20.7 17 50.4 17 71.1 0L464 150.1V128c0-8.8-7.2-16-16-16H64zM48 212.2V384c0 8.8 7.2 16 16 16H448c8.8 0 16-7.2 16-16V212.2L322 328.8c-38.4 31.5-93.7 31.5-132 0L48 212.2zM0 128C0 92.7 28.7 64 64 64H448c35.3 0 64 28.7 64 64V384c0 35.3-28.7 64-64 64H64c-35.3 0-64-28.7-64-64V128z"/>
    </symbol>
    <!-- Facebook -->
    <symbol id="facebook" viewBox="0 0 24 24">
      <path d="M22 0H2a2 2 0 0 0-2 2v20a2 2 0 0 0 2 2h11v-9h-3v-4h3V8.413c0-3.1 1.893-4.788 4.659-4.788 1.325 0 2.463.099 2.795.143v3.24l-1.918.001c-1.504 0-1.795.715-1.795 1.763V11h4.44l-1 4h-3.44v9H22a2 2 0 0 0 2-2V2a2 2 0 0 0-2-2z"/>
    </symbol>
    <!-- Instagram -->
    <symbol id="instagram" viewBox="0 0 24 24">
      <path fill-rule="evenodd" clip-rule="evenodd" d="M12 18C15.3137 18 18 15.3137 18 12C18 8.68629 15.3137 6 12 6C8.68629 6 6 8.68629 6 12C6 15.3137 8.68629 18 12 18ZM12 16C14.2091 16 16 14.2091 16 12C16 9.79086 14.2091 8 12 8C9.79086 8 8 9.79086 8 12C8 14.2091 9.79086 16 12 16Z"></path>
      <path d="M18 5C17.4477 5 17 5.44772 17 6C17 6.55228 17.4477 7 18 7C18.5523 7 19 6.55228 19 6C19 5.44772 18.5523 5 18 5Z"></path>
      <path fill-rule="evenodd" clip-rule="evenodd" d="M1.65396 4.27606C1 5.55953 1 7.23969 1 10.6V13.4C1 16.7603 1 18.4405 1.65396 19.7239C2.2292 20.8529 3.14708 21.7708 4.27606 22.346C5.55953 23 7.23969 23 10.6 23H13.4C16.7603 23 18.4405 23 19.7239 22.346C20.8529 21.7708 21.7708 20.8529 22.346 19.7239C23 18.4405 23 16.7603 23 13.4V10.6C23 7.23969 23 5.55953 22.346 4.27606C21.7708 3.14708 20.8529 2.2292 19.7239 1.65396C18.4405 1 16.7603 1 13.4 1H10.6C7.23969 1 5.55953 1 4.27606 1.65396C3.14708 2.2292 2.2292 3.14708 1.65396 4.27606ZM13.4 3H10.6C8.88684 3 7.72225 3.00156 6.82208 3.0751C5.94524 3.14674 5.49684 3.27659 5.18404 3.43597C4.43139 3.81947 3.81947 4.43139 3.43597 5.18404C3.27659 5.49684 3.14674 5.94524 3.0751 6.82208C3.00156 7.72225 3 8.88684 3 10.6V13.4C3 15.1132 3.00156 16.2777 3.0751 17.1779C3.14674 18.0548 3.27659 18.5032 3.43597 18.816C3.81947 19.5686 4.43139 20.1805 5.18404 20.564C5.49684 20.7234 5.94524 20.8533 6.82208 20.9249C7.72225 20.9984 8.88684 21 10.6 21H13.4C15.1132 21 16.2777 20.9984 17.1779 20.9249C18.0548 20.8533 18.5032 20.7234 18.816 20.564C19.5686 20.1805 20.1805 19.5686 20.564 18.816C20.7234 18.5032 20.8533 18.0548 20.9249 17.1779C20.9984 16.2777 21 15.1132 21 13.4V10.6C21 8.88684 20.9984 7.72225 20.9249 6.82208C20.8533 5.94524 20.7234 5.49684 20.564 5.18404C20.1805 4.43139 19.5686 3.81947 18.816 3.43597C18.5032 3.27659 18.0548 3.14674 17.1779 3.0751C16.2777 3.00156 15.1132 3 13.4 3Z"></path>
    </symbol>
    <!-- Github -->
    <symbol id="github" viewBox="0 0 496 512">
      <path d="M165.9 397.4c0 2-2.3 3.6-5.2 3.6-3.3 .3-5.6-1.3-5.6-3.6 0-2 2.3-3.6 5.2-3.6 3-.3 5.6 1.3 5.6 3.6zm-31.1-4.5c-.7 2 1.3 4.3 4.3 4.9 2.6 1 5.6 0 6.2-2s-1.3-4.3-4.3-5.2c-2.6-.7-5.5 .3-6.2 2.3zm44.2-1.7c-2.9 .7-4.9 2.6-4.6 4.9 .3 2 2.9 3.3 5.9 2.6 2.9-.7 4.9-2.6 4.6-4.6-.3-1.9-3-3.2-5.9-2.9zM244.8 8C106.1 8 0 113.3 0 252c0 110.9 69.8 205.8 169.5 239.2 12.8 2.3 17.3-5.6 17.3-12.1 0-6.2-.3-40.4-.3-61.4 0 0-70 15-84.7-29.8 0 0-11.4-29.1-27.8-36.6 0 0-22.9-15.7 1.6-15.4 0 0 24.9 2 38.6 25.8 21.9 38.6 58.6 27.5 72.9 20.9 2.3-16 8.8-27.1 16-33.7-55.9-6.2-112.3-14.3-112.3-110.5 0-27.5 7.6-41.3 23.6-58.9-2.6-6.5-11.1-33.3 2.6-67.9 20.9-6.5 69 27 69 27 20-5.6 41.5-8.5 62.8-8.5s42.8 2.9 62.8 8.5c0 0 48.1-33.6 69-27 13.7 34.7 5.2 61.4 2.6 67.9 16 17.7 25.8 31.5 25.8 58.9 0 96.5-58.9 104.2-114.8 110.5 9.2 7.9 17 22.9 17 46.4 0 33.7-.3 75.4-.3 83.6 0 6.5 4.6 14.4 17.3 12.1C428.2 457.8 496 362.9 496 252 496 113.3 383.5 8 244.8 8zM97.2 352.9c-1.3 1-1 3.3 .7 5.2 1.6 1.6 3.9 2.3 5.2 1 1.3-1 1-3.3-.7-5.2-1.6-1.6-3.9-2.3-5.2-1zm-10.8-8.1c-.7 1.3 .3 2.9 2.3 3.9 1.6 1 3.6 .7 4.3-.7 .7-1.3-.3-2.9-2.3-3.9-2-.6-3.6-.3-4.3 .7zm32.4 35.6c-1.6 1.3-1 4.3 1.3 6.2 2.3 2.3 5.2 2.6 6.5 1 1.3-1.3 .7-4.3-1.3-6.2-2.2-2.3-5.2-2.6-6.5-1zm-11.4-14.7c-1.6 1-1.6 3.6 0 5.9 1.6 2.3 4.3 3.3 5.6 2.3 1.6-1.3 1.6-3.9 0-6.2-1.4-2.3-4-3.3-5.6-2z"/>
    </symbol>
    <!-- LinkedIn -->
    <symbol id="linkedin" viewBox="0 0 24 24">
      <path d="M6.5 8C7.32843 8 8 7.32843 8 6.5C8 5.67157 7.32843 5 6.5 5C5.67157 5 5 5.67157 5 6.5C5 7.32843 5.67157 8 6.5 8Z"/>
      <path d="M5 10C5 9.44772 5.44772 9 6 9H7C7.55228 9 8 9.44771 8 10V18C8 18.5523 7.55228 19 7 19H6C5.44772 19 5 18.5523 5 18V10Z"/>
      <path d="M11 19H12C12.5523 19 13 18.5523 13 18V13.5C13 12 16 11 16 13V18.0004C16 18.5527 16.4477 19 17 19H18C18.5523 19 19 18.5523 19 18V12C19 10 17.5 9 15.5 9C13.5 9 13 10.5 13 10.5V10C13 9.44771 12.5523 9 12 9H11C10.4477 9 10 9.44772 10 10V18C10 18.5523 10.4477 19 11 19Z"/>
      <path fill-rule="evenodd" clip-rule="evenodd" d="M20 1C21.6569 1 23 2.34315 23 4V20C23 21.6569 21.6569 23 20 23H4C2.34315 23 1 21.6569 1 20V4C1 2.34315 2.34315 1 4 1H20ZM20 3C20.5523 3 21 3.44772 21 4V20C21 20.5523 20.5523 21 20 21H4C3.44772 21 3 20.5523 3 20V4C3 3.44772 3.44772 3 4 3H20Z"/>
    </symbol>
</defs>
</svg>