<svg xmlns="http://www.w3.org/2000/svg">
  <defs>
  <!-- html icon -->
    <symbol id="html" viewBox="0 0 32 32">
      <path d="M6 28L4 3H28L26 28L16 31L6 28Z" fill="#E44D26"/>
      <path d="M26 5H16V29.5L24 27L26 5Z" fill="#F16529"/>
      <path d="M9.5 17.5L8.5 8H24L23.5 11H11.5L12 14.5H23L22 24L16 26L10 24L9.5 19H12.5L13 21.5L16 22.5L19 21.5L19.5 17.5H9.5Z" fill="white"/>
    </symbol>

    <!-- css icon -->
    <symbol id="css" viewBox="0 0 32 32">
    <path d="M6 28L4 3H28L26 28L16 31L6 28Z" fill="#1172B8"/>
    <path d="M26 5H16V29.5L24 27L26 5Z" fill="#33AADD"/>
    <path d="M19.5 17.5H9.5L9 14L17 11.5H9L8.5 8.5H24L23.5 12L17 14.5H23L22 24L16 26L10 24L9.5 19H12.5L13 21.5L16 22.5L19 21.5L19.5 17.5Z" fill="white"/>
    </symbol>

    <!-- sass icon -->
    <symbol id="sass" viewBox="0 0 32 32">
      <path d="M26.11 17.572a5.8 5.8 0 0 0-2.537.588 5.345 5.345 0 0 1-.568-1.314 3.53 3.53 0 0 1-.051-1.1 9.811 9.811 0 0 1 .332-1.192c-.005-.051-.061-.292-.624-.3s-1.048.107-1.1.256a6.171 6.171 0 0 0-.235.834 19.686 19.686 0 0 1-1.713 3.294 3.186 3.186 0 0 1-.44-2.066 9.811 9.811 0 0 1 .332-1.192c-.005-.051-.061-.292-.624-.3s-1.048.107-1.1.256-.118.5-.235.834-1.483 3.386-1.841 4.173c-.184.4-.343.726-.455.946a.233.233 0 0 1-.02.041l-.153.292v.005c-.077.138-.159.266-.2.266a1.711 1.711 0 0 1 .01-.869c.2-1.059.69-2.705.685-2.762 0-.031.092-.317-.317-.465a.508.508 0 0 0-.578.1c-.036 0-.061.087-.061.087s.445-1.851-.849-1.851a3.855 3.855 0 0 0-2.475 1.683c-.348.189-1.089.593-1.882 1.028-.3.169-.614.338-.905.5-.02-.02-.041-.046-.061-.066C6.87 17.6 3.975 16.416 4.1 14.171c.046-.818.327-2.966 5.559-5.575 4.306-2.122 7.733-1.534 8.326-.23.849 1.862-1.836 5.319-6.285 5.82a3.351 3.351 0 0 1-2.813-.711c-.235-.256-.271-.271-.358-.22-.143.077-.051.307 0 .44a2.626 2.626 0 0 0 1.606 1.263 8.55 8.55 0 0 0 5.217-.517c2.7-1.043 4.8-3.943 4.184-6.372-.619-2.465-4.71-3.278-8.582-1.9a19.5 19.5 0 0 0-6.595 3.783c-2.133 1.995-2.47 3.728-2.332 4.455.5 2.578 4.051 4.255 5.472 5.5a8.554 8.554 0 0 1-.194.107c-.711.353-3.421 1.77-4.1 3.268-.767 1.7.123 2.915.711 3.079a4.374 4.374 0 0 0 4.71-1.908 4.725 4.725 0 0 0 .423-4.353.107.107 0 0 0-.02-.031l.557-.327a27.2 27.2 0 0 1 1.028-.578 6.74 6.74 0 0 0-.363 1.862 3.886 3.886 0 0 0 .834 2.7.921.921 0 0 0 .675.22c.6 0 .875-.5 1.176-1.094.368-.726.7-1.57.7-1.57s-.414 2.281.711 2.281c.409 0 .823-.532 1.008-.8v.005l.031-.051.066-.107v-.01c.164-.286.532-.936 1.079-2.015.706-1.391 1.386-3.13 1.386-3.13a8.888 8.888 0 0 0 .271 1.13 10.643 10.643 0 0 0 .583 1.309c-.164.23-.266.358-.266.358l.005.005c-.133.174-.276.363-.435.547a16.3 16.3 0 0 0-1.314 1.647.447.447 0 0 0 .123.6 1.116 1.116 0 0 0 .685.113 3.147 3.147 0 0 0 1.028-.235 3.45 3.45 0 0 0 .885-.465 1.98 1.98 0 0 0 .849-1.744 3.521 3.521 0 0 0-.322-1.233c.051-.072.1-.143.148-.215a23.428 23.428 0 0 0 1.534-2.649 8.888 8.888 0 0 0 .271 1.13 7.57 7.57 0 0 0 .5 1.125 4.861 4.861 0 0 0-1.497 1.922c-.322.931-.072 1.35.4 1.447a1.425 1.425 0 0 0 .747-.153 3.4 3.4 0 0 0 .946-.486 2.126 2.126 0 0 0 1.043-1.729 3.268 3.268 0 0 0-.235-1.023 5.356 5.356 0 0 1 2.716-.312c2.434.286 2.915 1.805 2.823 2.445a1.618 1.618 0 0 1-.772 1.094c-.169.107-.225.143-.21.22.02.113.1.107.245.087A1.9 1.9 0 0 0 30 20.7c.077-1.5-1.355-3.145-3.887-3.13ZM7.33 23.9c-.808.88-1.933 1.212-2.419.931-.522-.3-.317-1.6.675-2.532a12.884 12.884 0 0 1 1.9-1.417c.118-.072.292-.174.5-.3l.056-.031.123-.077A3.493 3.493 0 0 1 7.33 23.9Zm5.881-4c-.281.685-.869 2.44-1.227 2.342-.307-.082-.5-1.412-.061-2.726a6.193 6.193 0 0 1 .956-1.754c.44-.491.926-.655 1.043-.455a9.062 9.062 0 0 1-.711 2.593Zm4.853 2.322c-.118.061-.23.1-.281.072-.036-.02.051-.1.051-.1s.609-.655.849-.951c.138-.174.3-.378.476-.609v.066c0 .782-.757 1.309-1.094 1.524Zm3.744-.854c-.087-.061-.072-.266.22-.905a3.408 3.408 0 0 1 .834-1.074 1.448 1.448 0 0 1 .082.471 1.547 1.547 0 0 1-1.135 1.509Z" style="fill:#cd6799"/>
    </symbol>

    <!-- javascript icon -->
    <symbol id="javascript" viewBox="0 0 630 630">
      <rect width="630" height="630" fill="#f7df1e"/>
      <path fill="black" d="m423.2 492.19c12.69 20.72 29.2 35.95 58.4 35.95 24.53 0 40.2-12.26 40.2-29.2 0-20.3-16.1-27.49-43.1-39.3l-14.8-6.35c-42.72-18.2-71.1-41-71.1-89.2 0-44.4 33.83-78.2 86.7-78.2 37.64 0 64.7 13.1 84.2 47.4l-46.1 29.6c-10.15-18.2-21.1-25.37-38.1-25.37-17.34 0-28.33 11-28.33 25.37 0 17.76 11 24.95 36.4 35.95l14.8 6.34c50.3 21.57 78.7 43.56 78.7 93 0 53.3-41.87 82.5-98.1 82.5-54.98 0-90.5-26.2-107.88-60.54zm-209.13 5.13c9.3 16.5 17.76 30.45 38.1 30.45 19.45 0 31.72-7.61 31.72-37.2v-201.3h59.2v202.1c0 61.3-35.94 89.2-88.4 89.2-47.4 0-74.85-24.53-88.81-54.075z"/>
    </symbol>

    <!-- typescript icon -->
    <symbol id="typescript" fill="none" viewBox="0 0 512 512">
      <rect fill="#3178c6" height="512" rx="50" width="512"/>
      <rect fill="#3178c6" height="512" rx="50" width="512"/>
      <path clip-rule="evenodd" fill="#fff" fill-rule="evenodd" d="m316.939 407.424v50.061c8.138 4.172 17.763 7.3 28.875 9.386s22.823 3.129 35.135 3.129c11.999 0 23.397-1.147 34.196-3.442 10.799-2.294 20.268-6.075 28.406-11.342 8.138-5.266 14.581-12.15 19.328-20.65s7.121-19.007 7.121-31.522c0-9.074-1.356-17.026-4.069-23.857s-6.625-12.906-11.738-18.225c-5.112-5.319-11.242-10.091-18.389-14.315s-15.207-8.213-24.18-11.967c-6.573-2.712-12.468-5.345-17.685-7.9-5.217-2.556-9.651-5.163-13.303-7.822-3.652-2.66-6.469-5.476-8.451-8.448-1.982-2.973-2.974-6.336-2.974-10.091 0-3.441.887-6.544 2.661-9.308s4.278-5.136 7.512-7.118c3.235-1.981 7.199-3.52 11.894-4.615 4.696-1.095 9.912-1.642 15.651-1.642 4.173 0 8.581.313 13.224.938 4.643.626 9.312 1.591 14.008 2.894 4.695 1.304 9.259 2.947 13.694 4.928 4.434 1.982 8.529 4.276 12.285 6.884v-46.776c-7.616-2.92-15.937-5.084-24.962-6.492s-19.381-2.112-31.066-2.112c-11.895 0-23.163 1.278-33.805 3.833s-20.006 6.544-28.093 11.967c-8.086 5.424-14.476 12.333-19.171 20.729-4.695 8.395-7.043 18.433-7.043 30.114 0 14.914 4.304 27.638 12.912 38.172 8.607 10.533 21.675 19.45 39.204 26.751 6.886 2.816 13.303 5.579 19.25 8.291s11.086 5.528 15.415 8.448c4.33 2.92 7.747 6.101 10.252 9.543 2.504 3.441 3.756 7.352 3.756 11.733 0 3.233-.783 6.231-2.348 8.995s-3.939 5.162-7.121 7.196-7.147 3.624-11.894 4.771c-4.748 1.148-10.303 1.721-16.668 1.721-10.851 0-21.597-1.903-32.24-5.71-10.642-3.806-20.502-9.516-29.579-17.13zm-84.159-123.342h64.22v-41.082h-179v41.082h63.906v182.918h50.874z"/>
    </symbol>

    <!-- reactjs icon -->
    <symbol id="react" viewBox="0 0 32 32">
      <circle cx="16" cy="15.974" r="2.5" style="fill:#00d8ff"/>
      <path d="M16 21.706a28.385 28.385 0 0 1-8.88-1.2 11.3 11.3 0 0 1-3.657-1.958A3.543 3.543 0 0 1 2 15.974c0-1.653 1.816-3.273 4.858-4.333A28.755 28.755 0 0 1 16 10.293a28.674 28.674 0 0 1 9.022 1.324 11.376 11.376 0 0 1 3.538 1.866A3.391 3.391 0 0 1 30 15.974c0 1.718-2.03 3.459-5.3 4.541a28.8 28.8 0 0 1-8.7 1.191Zm0-10.217a27.948 27.948 0 0 0-8.749 1.282c-2.8.977-4.055 2.313-4.055 3.2 0 .928 1.349 2.387 4.311 3.4A27.21 27.21 0 0 0 16 20.51a27.6 27.6 0 0 0 8.325-1.13C27.4 18.361 28.8 16.9 28.8 15.974a2.327 2.327 0 0 0-1.01-1.573 10.194 10.194 0 0 0-3.161-1.654A27.462 27.462 0 0 0 16 11.489Z" style="fill:#00d8ff"/>
      <path d="M10.32 28.443a2.639 2.639 0 0 1-1.336-.328c-1.432-.826-1.928-3.208-1.327-6.373a28.755 28.755 0 0 1 3.4-8.593 28.676 28.676 0 0 1 5.653-7.154 11.376 11.376 0 0 1 3.384-2.133 3.391 3.391 0 0 1 2.878 0c1.489.858 1.982 3.486 1.287 6.859a28.806 28.806 0 0 1-3.316 8.133 28.385 28.385 0 0 1-5.476 7.093 11.3 11.3 0 0 1-3.523 2.189 4.926 4.926 0 0 1-1.624.307Zm1.773-14.7a27.948 27.948 0 0 0-3.26 8.219c-.553 2.915-.022 4.668.75 5.114.8.463 2.742.024 5.1-2.036a27.209 27.209 0 0 0 5.227-6.79 27.6 27.6 0 0 0 3.181-7.776c.654-3.175.089-5.119-.713-5.581a2.327 2.327 0 0 0-1.868.089A10.194 10.194 0 0 0 17.5 6.9a27.464 27.464 0 0 0-5.4 6.849Z" style="fill:#00d8ff"/>
      <path d="M21.677 28.456c-1.355 0-3.076-.82-4.868-2.361a28.756 28.756 0 0 1-5.747-7.237 28.676 28.676 0 0 1-3.374-8.471 11.376 11.376 0 0 1-.158-4A3.391 3.391 0 0 1 8.964 3.9c1.487-.861 4.01.024 6.585 2.31a28.8 28.8 0 0 1 5.39 6.934 28.384 28.384 0 0 1 3.41 8.287 11.3 11.3 0 0 1 .137 4.146 3.543 3.543 0 0 1-1.494 2.555 2.59 2.59 0 0 1-1.315.324Zm-9.58-10.2a27.949 27.949 0 0 0 5.492 6.929c2.249 1.935 4.033 2.351 4.8 1.9.8-.465 1.39-2.363.782-5.434A27.212 27.212 0 0 0 19.9 13.74a27.6 27.6 0 0 0-5.145-6.64c-2.424-2.152-4.39-2.633-5.191-2.169a2.327 2.327 0 0 0-.855 1.662 10.194 10.194 0 0 0 .153 3.565 27.465 27.465 0 0 0 3.236 8.1Z" style="fill:#00d8ff"/>
    </symbol>

    <!-- nextjs icon -->
    <symbol id="next" viewBox="0 0 256 256">
      <path d="M119.617.069c-.55.05-2.302.225-3.879.35-36.36 3.278-70.419 22.894-91.99 53.044-12.012 16.764-19.694 35.78-22.597 55.922C.125 116.415 0 118.492 0 128.025c0 9.533.125 11.61 1.151 18.64 6.957 48.065 41.165 88.449 87.56 103.411 8.309 2.678 17.067 4.504 27.027 5.605 3.879.425 20.645.425 24.524 0 17.192-1.902 31.756-6.155 46.12-13.486 2.202-1.126 2.628-1.426 2.327-1.677-.2-.15-9.584-12.735-20.845-27.948l-20.47-27.648-25.65-37.956c-14.114-20.868-25.725-37.932-25.825-37.932-.1-.025-.2 16.84-.25 37.431-.076 36.055-.1 37.506-.551 38.357-.65 1.226-1.151 1.727-2.202 2.277-.801.4-1.502.475-5.28.475h-4.33l-1.15-.725a4.679 4.679 0 0 1-1.677-1.827l-.526-1.126.05-50.166.075-50.192.776-.976c.4-.525 1.251-1.2 1.852-1.526 1.026-.5 1.426-.55 5.755-.55 5.105 0 5.956.2 7.282 1.651.376.4 14.264 21.318 30.88 46.514 16.617 25.195 39.34 59.599 50.5 76.488l20.27 30.7 1.026-.675c9.084-5.905 18.693-14.312 26.3-23.07 16.191-18.59 26.626-41.258 30.13-65.428 1.026-7.031 1.151-9.108 1.151-18.64 0-9.534-.125-11.61-1.151-18.641-6.957-48.065-41.165-88.449-87.56-103.411-8.184-2.652-16.892-4.479-26.652-5.58-2.402-.25-18.943-.525-21.02-.325Zm52.401 77.414c1.201.6 2.177 1.752 2.527 2.953.2.65.25 14.562.2 45.913l-.074 44.987-7.933-12.16-7.958-12.16v-32.702c0-21.143.1-33.028.25-33.603.4-1.401 1.277-2.502 2.478-3.153 1.026-.525 1.401-.575 5.33-.575 3.704 0 4.354.05 5.18.5Z"/>
    </symbol>

    <!-- vuejs icon -->
    <symbol id="vue" viewBox="0 0 32 32">
      <path d="m2 4 14 24L30 4h-5.5L16 18.5 7.5 4H2Z" fill="#41B883"/>
      <path d="M7.5 4 16 18.5 24.5 4h-5l-3.435 6.013L12.5 4h-5Z" fill="#35495E"/>
    </symbol>

    <!-- nuxtjs icon -->
    <symbol id="nuxt" viewBox="0 -32.5 256 256">
      <g fill="none" fill-rule="evenodd">
        <path d="M77.891 183.615a9.437 9.437 0 0 1-.506-1.04 13.329 13.329 0 0 1-.906-7.517H15.993l89.888-158.184 29.51 51.875 8.557-15.141L118.224 8.29c-.72-1.306-5.065-8.29-12.556-8.29-3.385 0-8.237 1.466-12.182 8.397L2.425 168.5c-.773 1.386-4.532 8.664-.8 15.115 1.706 2.932 5.332 6.424 13.329 6.424H91.22c-7.944 0-11.623-3.439-13.329-6.424Z" fill="#01C58E"/>
        <path d="M253.242 168.5 178.416 36.68c-.773-1.386-5.092-8.397-12.61-8.397-3.385 0-8.236 1.44-12.182 8.37l-9.676 16.955 8.61 15.14 13.329-23.59 74.027 129.9h-28.15c.36 2.147.158 4.351-.587 6.398a8.157 8.157 0 0 1-.586 1.306l-.24.48c-3.785 6.45-11.97 6.797-13.568 6.797h44.037c1.626 0 9.783-.346 13.569-6.797 1.68-2.933 2.879-7.864-1.147-14.742Z" fill="#108775"/>
        <path d="m210.351 183.242.24-.48c.233-.418.43-.855.586-1.306.745-2.047.947-4.25.587-6.398a19.486 19.486 0 0 0-2.453-6.558l-56.7-99.751-8.663-15.141-8.61 15.14L78.664 168.5a20.18 20.18 0 0 0-2.185 6.558 13.329 13.329 0 0 0 .826 7.517c.147.357.316.704.506 1.04 1.706 2.932 5.332 6.424 13.329 6.424h105.563c1.679 0 9.863-.346 13.648-6.797ZM143.948 83.89l51.822 91.168H92.153l51.795-91.168Z" fill="#2F495E"/>
      </g>
    </symbol>

    <!-- php icon -->
    <symbol id="php" viewBox="0 0 32 32">
      <defs>
      <radialGradient id="aa" cx="-16.114" cy="20.532" r="18.384" gradientTransform="translate(26.52 -9.307)" gradientUnits="userSpaceOnUse">
      <stop offset="0" stop-color="#fff"/>
      <stop offset=".5" stop-color="#4c6b96"/>
      <stop offset="1" stop-color="#231f20"/>
      </radialGradient>
      </defs>
      <ellipse cx="16" cy="16" rx="14" ry="7.365" style="fill:url(#aa)"/>
      <ellipse cx="16" cy="16" rx="13.453" ry="6.818" style="fill:#6280b6"/>
      <path d="m18.725 18.2.667-3.434a1.752 1.752 0 0 0-.372-1.719 2.929 2.929 0 0 0-2-.525h-1.153l.331-1.7a.219.219 0 0 0-.215-.26h-1.6a.219.219 0 0 0-.215.177l-.709 3.646a2.051 2.051 0 0 0-.477-1.054 2.783 2.783 0 0 0-2.2-.807H7.7a.219.219 0 0 0-.215.177l-1.434 7.38a.219.219 0 0 0 .215.26h1.603a.219.219 0 0 0 .215-.177l.347-1.785h1.2a5.167 5.167 0 0 0 1.568-.2 3.068 3.068 0 0 0 1.15-.689 3.538 3.538 0 0 0 .68-.844l-.287 1.475a.219.219 0 0 0 .215.26h1.6a.219.219 0 0 0 .215-.177l.787-4.051h1.094c.466 0 .6.093.64.133s.1.165.025.569l-.635 3.265a.219.219 0 0 0 .215.26h1.62a.219.219 0 0 0 .207-.18Zm-7.395-2.834a1.749 1.749 0 0 1-.561 1.092 2.171 2.171 0 0 1-1.315.321h-.712l.515-2.651h.921c.677 0 .949.145 1.059.266a1.181 1.181 0 0 1 .093.972ZM25.546 13.332a2.783 2.783 0 0 0-2.2-.807h-3.091a.219.219 0 0 0-.215.177l-1.434 7.38a.219.219 0 0 0 .215.26h1.608a.219.219 0 0 0 .215-.177l.347-1.785h1.2a5.167 5.167 0 0 0 1.568-.2 3.068 3.068 0 0 0 1.15-.689 3.425 3.425 0 0 0 1.076-1.927 2.512 2.512 0 0 0-.439-2.232Zm-1.667 2.034a1.749 1.749 0 0 1-.561 1.092 2.171 2.171 0 0 1-1.318.32h-.71l.515-2.651h.921c.677 0 .949.145 1.059.266a1.181 1.181 0 0 1 .094.973Z" style="fill:#fff"/>
      <path d="M10.178 13.908a1.645 1.645 0 0 1 1.221.338 1.34 1.34 0 0 1 .145 1.161 1.945 1.945 0 0 1-.642 1.223 2.361 2.361 0 0 1-1.448.37h-.978l.6-3.089Zm-3.917 6.216h1.608l.381-1.962h1.377a4.931 4.931 0 0 0 1.5-.191 2.84 2.84 0 0 0 1.07-.642 3.207 3.207 0 0 0 1.01-1.808 2.3 2.3 0 0 0-.385-2.044 2.568 2.568 0 0 0-2.035-.732H7.7ZM14.387 10.782h1.6l-.387 1.962h1.421a2.767 2.767 0 0 1 1.85.468 1.548 1.548 0 0 1 .305 1.516l-.667 3.434H16.89l.635-3.265a.886.886 0 0 0-.08-.76 1.121 1.121 0 0 0-.8-.2H15.37l-.822 4.228h-1.6ZM22.727 13.908a1.645 1.645 0 0 1 1.221.338 1.34 1.34 0 0 1 .145 1.161 1.945 1.945 0 0 1-.642 1.223A2.361 2.361 0 0 1 22 17h-.978l.6-3.089Zm-3.917 6.216h1.608l.381-1.962h1.377a4.931 4.931 0 0 0 1.5-.191 2.84 2.84 0 0 0 1.07-.642 3.207 3.207 0 0 0 1.01-1.808 2.3 2.3 0 0 0-.385-2.044 2.568 2.568 0 0 0-2.035-.732h-3.092Z" style="fill:#000004"/>
    </symbol>

    <!-- laravel icon -->
    <symbol id="laravel" viewBox="-4 0 264 264" preserveAspectRatio="xMidYMid">
      <path d="M255.856 59.62c.095.351.144.713.144 1.077v56.568c0 1.478-.79 2.843-2.073 3.578L206.45 148.18v54.18a4.135 4.135 0 0 1-2.062 3.579l-99.108 57.053c-.227.128-.474.21-.722.299-.093.03-.18.087-.278.113a4.15 4.15 0 0 1-2.114 0c-.114-.03-.217-.093-.325-.134-.227-.083-.464-.155-.68-.278L2.073 205.938A4.128 4.128 0 0 1 0 202.36V32.656c0-.372.052-.733.144-1.083.031-.119.103-.227.145-.346.077-.216.15-.438.263-.639.077-.134.19-.242.283-.366.119-.165.227-.335.366-.48.119-.118.274-.206.408-.309.15-.124.283-.258.453-.356h.005L51.613.551a4.135 4.135 0 0 1 4.125 0l49.546 28.526h.01c.165.104.305.232.454.351.134.103.284.196.402.31.145.149.248.32.371.484.088.124.207.232.279.366.118.206.185.423.268.64.041.118.113.226.144.35.095.351.144.714.145 1.078V138.65l41.286-23.773V60.692c0-.36.052-.727.145-1.072.036-.124.103-.232.144-.35.083-.217.155-.44.268-.64.077-.134.19-.242.279-.366.123-.165.226-.335.37-.48.12-.118.269-.206.403-.309.155-.124.289-.258.454-.356h.005l49.551-28.526a4.13 4.13 0 0 1 4.125 0l49.546 28.526c.175.103.309.232.464.35.128.104.278.197.397.31.144.15.247.32.37.485.094.124.207.232.28.366.118.2.185.423.267.64.047.118.114.226.145.35Zm-8.115 55.258v-47.04l-17.339 9.981-23.953 13.792v47.04l41.297-23.773h-.005Zm-49.546 85.095V152.9l-23.562 13.457-67.281 38.4v47.514l90.843-52.3ZM8.259 39.796v160.177l90.833 52.294v-47.505L51.64 177.906l-.015-.01-.02-.01c-.16-.093-.295-.227-.444-.34-.13-.104-.279-.186-.392-.3l-.01-.015c-.134-.129-.227-.289-.34-.433-.104-.14-.227-.258-.31-.402l-.005-.016c-.093-.154-.15-.34-.217-.515-.067-.155-.154-.3-.196-.464v-.005c-.051-.196-.061-.403-.082-.604-.02-.154-.062-.309-.062-.464V63.57L25.598 49.772l-17.339-9.97v-.006ZM53.681 8.893 12.399 32.656l41.272 23.762L94.947 32.65 53.671 8.893h.01Zm21.468 148.298 23.948-13.786V39.796L81.76 49.778 57.805 63.569v103.608l17.344-9.986ZM202.324 36.935l-41.276 23.762 41.276 23.763 41.271-23.768-41.27-23.757Zm-4.13 54.676-23.953-13.792-17.338-9.981v47.04l23.948 13.787 17.344 9.986v-47.04Zm-94.977 106.006 60.543-34.564 30.264-17.272-41.246-23.747-47.489 27.34-43.282 24.918 41.21 23.325Z" fill="#FF2D20"/>
    </symbol>

    <!-- tailwind icon -->
    <symbol id="tailwind" viewBox="0 0 47 40" fill="none">
      <path fill="#3ebff8" d="M23.5 6.5C17.5 6.5 13.75 9.5 12.25 15.5C14.5 12.5 17.125 11.375 20.125 12.125C21.8367 12.5529 23.0601 13.7947 24.4142 15.1692C26.6202 17.4084 29.1734 20 34.75 20C40.75 20 44.5 17 46 11C43.75 14 41.125 15.125 38.125 14.375C36.4133 13.9471 35.1899 12.7053 33.8357 11.3308C31.6297 9.09158 29.0766 6.5 23.5 6.5ZM12.25 20C6.25 20 2.5 23 1 29C3.25 26 5.875 24.875 8.875 25.625C10.5867 26.0529 11.8101 27.2947 13.1642 28.6693C15.3702 30.9084 17.9234 33.5 23.5 33.5C29.5 33.5 33.25 30.5 34.75 24.5C32.5 27.5 29.875 28.625 26.875 27.875C25.1633 27.4471 23.9399 26.2053 22.5858 24.8307C20.3798 22.5916 17.8266 20 12.25 20Z"/>
    </symbol>

    <!-- bootstrap icon -->
    <symbol id="bootstrap" viewBox="0 0 24 24">
      <path fill-rule="evenodd" clip-rule="evenodd" d="M4.985 2c-1.37 0-2.383 1.199-2.337 2.498.043 1.25-.013 2.867-.42 4.186-.41 1.322-1.1 2.16-2.228 2.268v1.215c1.128.107 1.819.945 2.227 2.268.408 1.319.464 2.936.42 4.185-.045 1.3.968 2.499 2.338 2.499h14.032c1.37 0 2.383-1.199 2.337-2.499-.043-1.249.013-2.866.42-4.185.409-1.323 1.098-2.16 2.226-2.268v-1.215c-1.128-.108-1.817-.946-2.226-2.268-.407-1.32-.463-2.937-.42-4.186C21.4 3.198 20.386 2 19.017 2H4.985ZM16.27 13.769c0 1.79-1.335 2.875-3.55 2.875H8.949a.407.407 0 0 1-.407-.407V6.881a.407.407 0 0 1 .407-.406h3.75c1.847 0 3.06 1 3.06 2.537 0 1.078-.816 2.043-1.855 2.213v.056c1.415.155 2.367 1.135 2.367 2.488ZM12.31 7.764h-2.15v3.038h1.811c1.4 0 2.172-.564 2.172-1.572 0-.944-.664-1.466-1.833-1.466Zm-2.15 4.243v3.347h2.23c1.457 0 2.23-.585 2.23-1.684 0-1.1-.794-1.663-2.324-1.663h-2.136Z" fill="#563D7C"/>
    </symbol>

    <!-- radix ui icon -->
    <symbol id="radix" viewBox="4 0 17 25">
      <path d="M12 25a8 8 0 1 1 0-16v16zm0-25H4v8h8V0zm5 8a4 4 0 1 0 0-8 4 4 0 0 0 0 8z" fill="currentcolor"/>
    </symbol>

    <!-- astro icon -->
    <symbol id="astro" viewBox="0 0 85 107">
      <path d="M27.5894 91.1365C22.7555 86.7178 21.3444 77.4335 23.3583 70.7072C26.8503 74.948 31.6888 76.2914 36.7005 77.0497C44.4375 78.2199 52.0359 77.7822 59.2232 74.2459C60.0454 73.841 60.8052 73.3027 61.7036 72.7574C62.378 74.714 62.5535 76.6892 62.318 78.6996C61.7452 83.5957 59.3086 87.3778 55.4332 90.2448C53.8835 91.3916 52.2437 92.4167 50.6432 93.4979C45.7262 96.8213 44.3959 100.718 46.2435 106.386C46.2874 106.525 46.3267 106.663 46.426 107C43.9155 105.876 42.0817 104.24 40.6845 102.089C39.2087 99.8193 38.5066 97.3081 38.4696 94.5909C38.4511 93.2686 38.4511 91.9345 38.2733 90.6309C37.8391 87.4527 36.3471 86.0297 33.5364 85.9478C30.6518 85.8636 28.37 87.6469 27.7649 90.4554C27.7187 90.6707 27.6517 90.8837 27.5847 91.1341L27.5894 91.1365Z" fill="#F041FF"/>
      <path d="M0 69.5866C0 69.5866 14.3139 62.6137 28.6678 62.6137L39.4901 29.1204C39.8953 27.5007 41.0783 26.3999 42.4139 26.3999C43.7495 26.3999 44.9325 27.5007 45.3377 29.1204L56.1601 62.6137C73.1601 62.6137 84.8278 69.5866 84.8278 69.5866C84.8278 69.5866 60.5145 3.35233 60.467 3.21944C59.7692 1.2612 58.5911 0 57.0029 0H27.8274C26.2392 0 25.1087 1.2612 24.3634 3.21944C24.3108 3.34983 0 69.5866 0 69.5866Z" fill="currentColor"/>
    </symbol>

    <!-- mysql icon -->
    <symbol id="mysql" viewBox="0 0 32 32">
      <path d="M8.785 6.865a3.055 3.055 0 0 0-.785.1V7h.038a6.461 6.461 0 0 0 .612.785c.154.306.288.611.441.917l.038-.039a1.074 1.074 0 0 0 .4-.957 4.314 4.314 0 0 1-.23-.4c-.115-.191-.364-.287-.517-.44" style="fill:#5d87a1;fill-rule:evenodd"/>
      <path d="M27.78 23.553a8.849 8.849 0 0 0-3.712.536c-.287.115-.745.115-.785.478.154.153.172.4.307.613a4.467 4.467 0 0 0 .995 1.167c.4.306.8.611 1.225.879.745.461 1.588.728 2.314 1.187.422.268.842.612 1.264.9.21.153.343.4.611.5v-.058a3.844 3.844 0 0 0-.291-.613c-.191-.19-.383-.363-.575-.554a9.118 9.118 0 0 0-1.99-1.932c-.613-.422-1.953-1-2.2-1.7l-.039-.039a7.69 7.69 0 0 0 1.321-.308c.65-.172 1.243-.133 1.912-.3.307-.077.862-.268.862-.268v-.3c-.342-.34-.587-.795-.947-1.116a25.338 25.338 0 0 0-3.122-2.328c-.587-.379-1.344-.623-1.969-.946-.226-.114-.6-.17-.737-.36a7.594 7.594 0 0 1-.776-1.457 46.84 46.84 0 0 1-1.551-3.293 20.236 20.236 0 0 0-.965-2.157A19.078 19.078 0 0 0 11.609 5a9.07 9.07 0 0 0-2.421-.776c-.474-.02-.946-.057-1.419-.075a7.55 7.55 0 0 1-.869-.664C5.818 2.8 3.038 1.328 2.242 3.277 1.732 4.508 3 5.718 3.435 6.343A8.866 8.866 0 0 1 4.4 7.762c.133.322.171.663.3 1a22.556 22.556 0 0 0 .987 2.538 8.946 8.946 0 0 0 .7 1.172c.153.209.417.3.474.645a5.421 5.421 0 0 0-.436 1.419 8.336 8.336 0 0 0 .549 6.358c.3.473 1.022 1.514 1.987 1.116.851-.34.662-1.419.908-2.364.056-.229.019-.379.132-.53v.184s.483 1.061.723 1.6a10.813 10.813 0 0 0 2.4 2.59A3.514 3.514 0 0 1 14 24.657V25h.427a1.054 1.054 0 0 0-.427-.788 9.4 9.4 0 0 1-.959-1.16 24.992 24.992 0 0 1-2.064-3.519c-.3-.6-.553-1.258-.793-1.857-.11-.231-.11-.58-.295-.7a7.266 7.266 0 0 0-.884 1.313 11.419 11.419 0 0 0-.517 2.921c-.073.02-.037 0-.073.038-.589-.155-.792-.792-1.014-1.332a8.756 8.756 0 0 1-.166-5.164c.128-.405.683-1.681.461-2.068-.111-.369-.48-.58-.682-.871a7.767 7.767 0 0 1-.663-1.237C5.912 9.5 5.69 8.3 5.212 7.216a10.4 10.4 0 0 0-.921-1.489A9.586 9.586 0 0 1 3.276 4.22c-.092-.213-.221-.561-.074-.793a.3.3 0 0 1 .259-.252c.238-.212.921.058 1.16.174a9.2 9.2 0 0 1 1.824.967c.258.194.866.685.866.685h.18c.612.133 1.3.037 1.876.21a12.247 12.247 0 0 1 2.755 1.32 16.981 16.981 0 0 1 5.969 6.545c.23.439.327.842.537 1.3.4.94.9 1.9 1.3 2.814a12.578 12.578 0 0 0 1.36 2.564c.286.4 1.435.612 1.952.822a13.7 13.7 0 0 1 1.32.535c.651.4 1.3.861 1.913 1.3.305.23 1.262.708 1.32 1.091" style="fill:#00758f;fill-rule:evenodd"/>
    </symbol>

    <!-- sqlite icon -->
    <symbol id="sqlite" viewBox="0 0 32 32">
      <defs>
      <linearGradient id="aa" x1="-118.318" y1="45.638" x2="-116.751" y2="45.638" gradientTransform="matrix(0 11.486 11.486 0 -510.889 1363.307)" gradientUnits="userSpaceOnUse">
      <stop offset="0" stop-color="#97d9f6"/>
      <stop offset=".92" stop-color="#0f80cc"/>
      <stop offset="1" stop-color="#0f80cc"/>
      </linearGradient>
      </defs>
      <path d="M23.192 3.242H5.623a2.147 2.147 0 0 0-2.141 2.141v19.376A2.147 2.147 0 0 0 5.623 26.9h11.572c-.132-5.758 1.835-16.932 5.997-23.658Z" style="fill:#0f80cc"/>
      <path d="M22.554 3.867H5.623a1.518 1.518 0 0 0-1.516 1.516v17.962a42.01 42.01 0 0 1 13.569-2.684 123.555 123.555 0 0 1 4.878-16.794Z" style="fill:url(#aa)"/>
      <path d="M27.29 2.608c-1.2-1.073-2.66-.642-4.1.634-.213.19-.426.4-.638.625A25.4 25.4 0 0 0 17.1 15a10.178 10.178 0 0 1 .634 1.822c.036.14.069.272.1.384.062.265.1.437.1.437s-.022-.083-.113-.346l-.059-.17a2.083 2.083 0 0 0-.038-.094c-.16-.373-.6-1.16-.8-1.5-.167.493-.315.954-.438 1.371a12.131 12.131 0 0 1 .908 2.8s-.03-.115-.171-.515a19.037 19.037 0 0 0-.9-1.708 4.037 4.037 0 0 0-.264 1.724 6.009 6.009 0 0 1 .493 1.383c.334 1.283.566 2.846.566 2.846l.02.263a26.145 26.145 0 0 0 .065 3.205 11.362 11.362 0 0 0 .584 3.1l.18-.1a13.859 13.859 0 0 1-.478-4.628 35.269 35.269 0 0 1 1.938-9.688c2.01-5.308 4.8-9.568 7.35-11.6-2.326 2.1-5.474 8.9-6.417 11.418a45.656 45.656 0 0 0-2.254 8A6.211 6.211 0 0 1 21.39 20s1.233-1.521 2.674-3.693a26.206 26.206 0 0 0-2.755.733c-.7.294-.889.394-.889.394a23.939 23.939 0 0 1 4.215-2.007c2.676-4.215 5.592-10.2 2.656-12.824" style="fill:#003b57"/>
    </symbol>

    <!-- postgres icon -->
    <symbol id="postgresql" viewBox="-4 0 264 264" preserveAspectRatio="xMidYMid">
      <path d="M255.008 158.086c-1.535-4.649-5.556-7.887-10.756-8.664-2.452-.366-5.26-.21-8.583.475-5.792 1.195-10.089 1.65-13.225 1.738 11.837-19.985 21.462-42.775 27.003-64.228 8.96-34.689 4.172-50.492-1.423-57.64C233.217 10.847 211.614.683 185.552.372c-13.903-.17-26.108 2.575-32.475 4.549-5.928-1.046-12.302-1.63-18.99-1.738-12.537-.2-23.614 2.533-33.079 8.15-5.24-1.772-13.65-4.27-23.362-5.864-22.842-3.75-41.252-.828-54.718 8.685C6.622 25.672-.937 45.684.461 73.634c.444 8.874 5.408 35.874 13.224 61.48 4.492 14.718 9.282 26.94 14.237 36.33 7.027 13.315 14.546 21.156 22.987 23.972 4.731 1.576 13.327 2.68 22.368-4.85 1.146 1.388 2.675 2.767 4.704 4.048 2.577 1.625 5.728 2.953 8.875 3.74 11.341 2.835 21.964 2.126 31.027-1.848.056 1.612.099 3.152.135 4.482.06 2.157.12 4.272.199 6.25.537 13.374 1.447 23.773 4.143 31.049.148.4.347 1.01.557 1.657 1.345 4.118 3.594 11.012 9.316 16.411 5.925 5.593 13.092 7.308 19.656 7.308 3.292 0 6.433-.432 9.188-1.022 9.82-2.105 20.973-5.311 29.041-16.799 7.628-10.86 11.336-27.217 12.007-52.99.087-.729.167-1.425.244-2.088l.16-1.362 1.797.158.463.031c10.002.456 22.232-1.665 29.743-5.154 5.935-2.754 24.954-12.795 20.476-26.351"/>
      <path d="M237.906 160.722c-29.74 6.135-31.785-3.934-31.785-3.934 31.4-46.593 44.527-105.736 33.2-120.211-30.904-39.485-84.399-20.811-85.292-20.327l-.287.052c-5.876-1.22-12.451-1.946-19.842-2.067-13.456-.22-23.664 3.528-31.41 9.402 0 0-95.43-39.314-90.991 49.444.944 18.882 27.064 142.873 58.218 105.422 11.387-13.695 22.39-25.274 22.39-25.274 5.464 3.63 12.006 5.482 18.864 4.817l.533-.452c-.166 1.7-.09 3.363.213 5.332-8.026 8.967-5.667 10.541-21.711 13.844-16.235 3.346-6.698 9.302-.471 10.86 7.549 1.887 25.013 4.561 36.813-11.958l-.47 1.885c3.144 2.519 5.352 16.383 4.982 28.952-.37 12.568-.617 21.197 1.86 27.937 2.479 6.74 4.948 21.905 26.04 17.386 17.623-3.777 26.756-13.564 28.027-29.89.901-11.606 2.942-9.89 3.07-20.267l1.637-4.912c1.887-15.733.3-20.809 11.157-18.448l2.64.232c7.99.363 18.45-1.286 24.589-4.139 13.218-6.134 21.058-16.377 8.024-13.686h.002" fill="#336791"/>
      <path d="M108.076 81.525c-2.68-.373-5.107-.028-6.335.902-.69.523-.904 1.129-.962 1.546-.154 1.105.62 2.327 1.096 2.957 1.346 1.784 3.312 3.01 5.258 3.28.282.04.563.058.842.058 3.245 0 6.196-2.527 6.456-4.392.325-2.336-3.066-3.893-6.355-4.35M196.86 81.599c-.256-1.831-3.514-2.353-6.606-1.923-3.088.43-6.082 1.824-5.832 3.659.2 1.427 2.777 3.863 5.827 3.863.258 0 .518-.017.78-.054 2.036-.282 3.53-1.575 4.24-2.32 1.08-1.136 1.706-2.402 1.591-3.225" fill="#FFF"/>
      <path d="M247.802 160.025c-1.134-3.429-4.784-4.532-10.848-3.28-18.005 3.716-24.453 1.142-26.57-.417 13.995-21.32 25.508-47.092 31.719-71.137 2.942-11.39 4.567-21.968 4.7-30.59.147-9.463-1.465-16.417-4.789-20.665-13.402-17.125-33.072-26.311-56.882-26.563-16.369-.184-30.199 4.005-32.88 5.183-5.646-1.404-11.801-2.266-18.502-2.376-12.288-.199-22.91 2.743-31.704 8.74-3.82-1.422-13.692-4.811-25.765-6.756-20.872-3.36-37.458-.814-49.294 7.571-14.123 10.006-20.643 27.892-19.38 53.16.425 8.501 5.269 34.653 12.913 59.698 10.062 32.964 21 51.625 32.508 55.464 1.347.449 2.9.763 4.613.763 4.198 0 9.345-1.892 14.7-8.33a529.832 529.832 0 0 1 20.261-22.926c4.524 2.428 9.494 3.784 14.577 3.92.01.133.023.266.035.398a117.66 117.66 0 0 0-2.57 3.175c-3.522 4.471-4.255 5.402-15.592 7.736-3.225.666-11.79 2.431-11.916 8.435-.136 6.56 10.125 9.315 11.294 9.607 4.074 1.02 7.999 1.523 11.742 1.523 9.103 0 17.114-2.992 23.516-8.781-.197 23.386.778 46.43 3.586 53.451 2.3 5.748 7.918 19.795 25.664 19.794 2.604 0 5.47-.303 8.623-.979 18.521-3.97 26.564-12.156 29.675-30.203 1.665-9.645 4.522-32.676 5.866-45.03 2.836.885 6.487 1.29 10.434 1.289 8.232 0 17.731-1.749 23.688-4.514 6.692-3.108 18.768-10.734 16.578-17.36Zm-44.106-83.48c-.061 3.647-.563 6.958-1.095 10.414-.573 3.717-1.165 7.56-1.314 12.225-.147 4.54.42 9.26.968 13.825 1.108 9.22 2.245 18.712-2.156 28.078a36.508 36.508 0 0 1-1.95-4.009c-.547-1.326-1.735-3.456-3.38-6.404-6.399-11.476-21.384-38.35-13.713-49.316 2.285-3.264 8.084-6.62 22.64-4.813Zm-17.644-61.787c21.334.471 38.21 8.452 50.158 23.72 9.164 11.711-.927 64.998-30.14 110.969a171.33 171.33 0 0 0-.886-1.117l-.37-.462c7.549-12.467 6.073-24.802 4.759-35.738-.54-4.488-1.05-8.727-.92-12.709.134-4.22.692-7.84 1.232-11.34.663-4.313 1.338-8.776 1.152-14.037.139-.552.195-1.204.122-1.978-.475-5.045-6.235-20.144-17.975-33.81-6.422-7.475-15.787-15.84-28.574-21.482 5.5-1.14 13.021-2.203 21.442-2.016ZM66.674 175.778c-5.9 7.094-9.974 5.734-11.314 5.288-8.73-2.912-18.86-21.364-27.791-50.624-7.728-25.318-12.244-50.777-12.602-57.916-1.128-22.578 4.345-38.313 16.268-46.769 19.404-13.76 51.306-5.524 64.125-1.347-.184.182-.376.352-.558.537-21.036 21.244-20.537 57.54-20.485 59.759-.002.856.07 2.068.168 3.735.362 6.105 1.036 17.467-.764 30.334-1.672 11.957 2.014 23.66 10.111 32.109a36.275 36.275 0 0 0 2.617 2.468c-3.604 3.86-11.437 12.396-19.775 22.426Zm22.479-29.993c-6.526-6.81-9.49-16.282-8.133-25.99 1.9-13.592 1.199-25.43.822-31.79-.053-.89-.1-1.67-.127-2.285 3.073-2.725 17.314-10.355 27.47-8.028 4.634 1.061 7.458 4.217 8.632 9.645 6.076 28.103.804 39.816-3.432 49.229-.873 1.939-1.698 3.772-2.402 5.668l-.546 1.466c-1.382 3.706-2.668 7.152-3.465 10.424-6.938-.02-13.687-2.984-18.819-8.34Zm1.065 37.9c-2.026-.506-3.848-1.385-4.917-2.114.893-.42 2.482-.992 5.238-1.56 13.337-2.745 15.397-4.683 19.895-10.394 1.031-1.31 2.2-2.794 3.819-4.602l.002-.002c2.411-2.7 3.514-2.242 5.514-1.412 1.621.67 3.2 2.702 3.84 4.938.303 1.056.643 3.06-.47 4.62-9.396 13.156-23.088 12.987-32.921 10.526Zm69.799 64.952c-16.316 3.496-22.093-4.829-25.9-14.346-2.457-6.144-3.665-33.85-2.808-64.447.011-.407-.047-.8-.159-1.17a15.444 15.444 0 0 0-.456-2.162c-1.274-4.452-4.379-8.176-8.104-9.72-1.48-.613-4.196-1.738-7.46-.903.696-2.868 1.903-6.107 3.212-9.614l.549-1.475c.618-1.663 1.394-3.386 2.214-5.21 4.433-9.848 10.504-23.337 3.915-53.81-2.468-11.414-10.71-16.988-23.204-15.693-7.49.775-14.343 3.797-17.761 5.53-.735.372-1.407.732-2.035 1.082.954-11.5 4.558-32.992 18.04-46.59 8.489-8.56 19.794-12.788 33.568-12.56 27.14.444 44.544 14.372 54.366 25.979 8.464 10.001 13.047 20.076 14.876 25.51-13.755-1.399-23.11 1.316-27.852 8.096-10.317 14.748 5.644 43.372 13.315 57.129 1.407 2.521 2.621 4.7 3.003 5.626 2.498 6.054 5.732 10.096 8.093 13.046.724.904 1.426 1.781 1.96 2.547-4.166 1.201-11.649 3.976-10.967 17.847-.55 6.96-4.461 39.546-6.448 51.059-2.623 15.21-8.22 20.875-23.957 24.25Zm68.104-77.936c-4.26 1.977-11.389 3.46-18.161 3.779-7.48.35-11.288-.838-12.184-1.569-.42-8.644 2.797-9.547 6.202-10.503.535-.15 1.057-.297 1.561-.473.313.255.656.508 1.032.756 6.012 3.968 16.735 4.396 31.874 1.271l.166-.033c-2.042 1.909-5.536 4.471-10.49 6.772Z" fill="#FFF"/>
    </symbol>

    <!-- mongodb icon -->
    <symbol id="mongodb" viewBox="0 0 32 32">
      <path d="m15.9.087.854 1.604c.192.296.4.558.645.802a22.406 22.406 0 0 1 2.004 2.266c1.447 1.9 2.423 4.01 3.12 6.292.418 1.394.645 2.824.662 4.27.07 4.323-1.412 8.035-4.4 11.12a12.7 12.7 0 0 1-1.57 1.342c-.296 0-.436-.227-.558-.436a3.589 3.589 0 0 1-.436-1.255c-.105-.523-.174-1.046-.14-1.586v-.244C16.057 24.21 15.796.21 15.9.087z" fill="#599636"/>
      <path d="M15.9.034c-.035-.07-.07-.017-.105.017.017.35-.105.662-.296.96-.21.296-.488.523-.767.767-1.55 1.342-2.77 2.963-3.747 4.776-1.3 2.44-1.97 5.055-2.16 7.808-.087.993.314 4.497.627 5.508.854 2.684 2.388 4.933 4.375 6.885.488.47 1.01.906 1.55 1.325.157 0 .174-.14.21-.244a4.78 4.78 0 0 0 .157-.68l.35-2.614L15.9.034z" fill="#6cac48"/>
      <path d="M16.754 28.845c.035-.4.227-.732.436-1.063-.21-.087-.366-.26-.488-.453a3.235 3.235 0 0 1-.26-.575c-.244-.732-.296-1.5-.366-2.248v-.453c-.087.07-.105.662-.105.75a17.37 17.37 0 0 1-.314 2.353c-.052.314-.087.627-.28.906 0 .035 0 .07.017.122.314.924.4 1.865.453 2.824v.35c0 .418-.017.33.33.47.14.052.296.07.436.174.105 0 .122-.087.122-.157l-.052-.575v-1.604c-.017-.28.035-.558.07-.82z" fill="#c2bfbf"/>
    </symbol>

    <!-- firebase icon -->
    <symbol id="firebase" viewBox="0 0 600 600">
      <path d="M213.918 560.499c23.248 9.357 48.469 14.909 74.952 15.834 35.84 1.252 69.922-6.158 100.391-20.234-36.537-14.355-69.627-35.348-97.869-61.448-18.306 29.31-45.382 52.462-77.474 65.848Z" fill="#FF9100"/>
      <path d="M291.389 494.66c-64.466-59.622-103.574-145.917-100.269-240.568.108-3.073.27-6.145.46-9.216a166.993 166.993 0 0 0-36.004-5.241 167.001 167.001 0 0 0-51.183 6.153c-17.21 30.145-27.594 64.733-28.888 101.781-3.339 95.611 54.522 179.154 138.409 212.939 32.093-13.387 59.168-36.51 77.475-65.848Z" fill="#FFC400"/>
      <path d="M291.39 494.657c14.988-23.986 24.075-52.106 25.133-82.403 2.783-79.695-50.792-148.251-124.942-167.381-.19 3.071-.352 6.143-.46 9.216-3.305 94.651 35.803 180.946 100.269 240.568Z" fill="#FF9100"/>
      <path d="M308.231 20.858C266 54.691 232.652 99.302 212.475 150.693c-11.551 29.436-18.81 61.055-20.929 94.2 74.15 19.13 127.726 87.686 124.943 167.38-1.058 30.297-10.172 58.39-25.134 82.404 28.24 26.127 61.331 47.093 97.868 61.447 73.337-33.9 125.37-106.846 128.383-193.127 1.952-55.901-19.526-105.724-49.875-147.778-32.051-44.477-159.5-194.36-159.5-194.36Z" fill="#DD2C00"/>
    </symbol>

    <!-- supabase icon -->
    <symbol id="supabase" viewBox="0 0 256 263" preserveAspectRatio="xMidYMid">
      <defs>
      <linearGradient x1="20.862%" y1="20.687%" x2="63.426%" y2="44.071%" id="aa">
      <stop stop-color="#249361" offset="0%"/>
      <stop stop-color="#3ECF8E" offset="100%"/>
      </linearGradient>
      <linearGradient x1="1.991%" y1="-13.158%" x2="21.403%" y2="34.708%" id="ab">
      <stop offset="0%"/>
      <stop stop-opacity="0" offset="100%"/>
      </linearGradient>
      </defs>
      <path d="M149.602 258.579c-6.718 8.46-20.338 3.824-20.5-6.977l-2.367-157.984h106.229c19.24 0 29.971 22.223 18.007 37.292l-101.37 127.669Z" fill="url(#aa)"/>
      <path d="M149.602 258.579c-6.718 8.46-20.338 3.824-20.5-6.977l-2.367-157.984h106.229c19.24 0 29.971 22.223 18.007 37.292l-101.37 127.669Z" fill-opacity=".2" fill="url(#ab)"/>
      <path d="M106.399 4.37c6.717-8.461 20.338-3.826 20.5 6.976l1.037 157.984H23.037c-19.241 0-29.973-22.223-18.008-37.292L106.4 4.369Z" fill="#3ECF8E"/>
    </symbol>    

    <!-- nodejs icon -->
    <symbol id="node" viewBox="0 0 48 48">
      <path fill="#388e3c" d="m17.204 19.122-4.907 2.715a.563.563 0 0 0-.297.492v5.433c0 .203.113.39.297.492l4.908 2.717c.183.101.41.101.593 0l4.907-2.717a.566.566 0 0 0 .295-.492v-5.433a.564.564 0 0 0-.297-.492l-4.906-2.715a.613.613 0 0 0-.594 0m25.248 4.891-.818.452a.093.093 0 0 0-.049.082v.906c0 .034.019.065.049.082l.818.453a.102.102 0 0 0 .099 0l.818-.453a.095.095 0 0 0 .049-.082v-.906a.094.094 0 0 0-.05-.082l-.818-.452c-.015-.009-.032-.013-.049-.013s-.034.004-.049.013"/>
      <path fill="#37474f" d="m35.751 13.364-2.389-1.333a.243.243 0 0 0-.361.212L33 20.295l-2.203-1.219a.613.613 0 0 0-.594 0h.001l-4.907 2.715a.563.563 0 0 0-.297.491v5.433c0 .203.113.39.297.492l4.908 2.717c.183.101.41.101.593 0l4.907-2.717a.565.565 0 0 0 .295-.492V13.788a.487.487 0 0 0-.249-.424zm-2.885 13.094-2.23 1.235a.28.28 0 0 1-.269 0l-2.231-1.235a.255.255 0 0 1-.136-.224v-2.47c0-.092.051-.177.135-.224l2.231-1.234h-.001a.29.29 0 0 1 .27 0l2.23 1.234a.259.259 0 0 1 .135.225v2.47a.257.257 0 0 1-.134.223z"/>
      <path fill="#2e7d32" d="M17.204 19.122 12 27.762c0 .203.113.39.297.492l4.908 2.717c.183.101.41.101.593 0L23 22.329a.564.564 0 0 0-.297-.492l-4.906-2.715a.613.613 0 0 0-.594 0"/>
      <path fill="#4caf50" d="m17.204 19.122-4.907 2.715a.563.563 0 0 0-.297.492l5.204 8.642c.183.101.41.101.593 0l4.907-2.717a.565.565 0 0 0 .296-.492l-5.203-8.64a.613.613 0 0 0-.594 0"/>
      <path fill="#37474f" d="m47.703 21.791-4.906-2.715a.613.613 0 0 0-.594 0h.001l-4.907 2.715a.574.574 0 0 0-.297.503v5.411c0 .209.114.402.297.503l4.908 2.717a.613.613 0 0 0 .593 0l2.263-1.253a.3.3 0 0 0-.002-.526l-4.924-2.687a.263.263 0 0 1-.135-.228v-2.466c0-.092.05-.177.13-.221l2.235-1.236h-.001a.29.29 0 0 1 .27 0l2.235 1.237c.08.044.13.129.13.221v2.012a.241.241 0 0 0 .363.208l2.398-1.393a.483.483 0 0 0 .24-.417v-1.88a.576.576 0 0 0-.297-.505zm-37 0-4.906-2.715a.613.613 0 0 0-.594 0h.001L.297 21.791a.574.574 0 0 0-.297.503v7.465a.241.241 0 0 0 .363.208l2.398-1.393A.482.482 0 0 0 3 28.157v-4.393c0-.092.05-.177.13-.221l2.235-1.236a.29.29 0 0 1 .27 0l2.235 1.237c.08.044.13.129.13.221v4.393a.48.48 0 0 0 .24.417l2.398 1.393a.246.246 0 0 0 .242.001.245.245 0 0 0 .12-.21v-7.464a.576.576 0 0 0-.297-.504z"/>
    </symbol>

    <!-- nvm icon -->
    <symbol id="nvm" viewBox="0 0 512 172" style="enable-background:new 0 0 568 200" >
      <path d="M511.712 110.871v46.676c0 6.34-2.21 7.588-7.78 4.418-11.14-6.338-22.281-12.773-33.422-19.016-4.034-2.209-5.858-5.186-5.762-9.892.192-13.734 0-27.372.096-41.106 0-4.898-1.729-8.26-6.147-10.564-4.418-2.305-8.74-4.899-12.966-7.396-3.169-1.92-6.338-2.016-9.508-.096-4.802 2.786-9.7 5.57-14.598 8.356-2.881 1.633-4.13 3.842-4.13 7.3.096 22.569 0 45.042-.096 67.612 0 6.915-2.113 8.068-8.163 4.61-11.045-6.339-21.994-12.677-33.134-18.824-4.034-2.209-5.859-5.186-5.763-9.892.192-13.734 0-27.372.096-41.106 0-4.898-1.729-8.26-6.147-10.564-4.321-2.21-8.547-4.706-12.677-7.204-3.554-2.208-6.915-2.112-10.565.097-4.13 2.497-8.355 4.994-12.677 7.299-4.226 2.209-6.05 5.474-5.955 10.18.193 13.926 0 27.948.096 41.874 0 4.226-1.536 7.011-5.186 9.028-11.62 6.53-23.146 13.254-34.767 19.784-4.61 2.594-7.107 1.153-7.107-4.13 0-31.597 0-63.29-.096-94.888 0-3.842 1.537-6.627 4.898-8.548a34805.895 34805.895 0 0 0 61.275-35.15c3.361-1.922 6.53-1.922 9.892.095 13.158 7.587 26.411 15.079 39.569 22.762 2.017 1.152 3.361 1.152 5.378 0 12.774-7.491 25.74-14.694 38.513-22.282 4.13-2.4 7.683-2.497 11.909 0 19.784 11.525 39.761 22.954 59.642 34.287 3.937 2.209 5.57 5.282 5.57 9.7-.096 15.559 0 31.118 0 46.676h-.288v-.096ZM.1 110.583c0-15.27.096-30.637-.096-45.908C-.092 59.873 1.636 56.8 5.862 54.4c20.073-11.429 40.05-22.954 59.93-34.479 3.65-2.113 6.819-2.209 10.469-.096A7514.063 7514.063 0 0 0 136.575 54.4c3.937 2.209 5.666 5.186 5.666 9.7-.096 31.118-.096 62.235-.192 93.448 0 6.34-2.305 7.684-7.78 4.61-11.236-6.434-22.473-12.965-33.806-19.208-3.746-2.113-5.57-4.898-5.474-9.316.192-13.83 0-27.66.096-41.49.096-4.898-1.633-8.355-6.05-10.564-4.515-2.305-8.933-4.994-13.35-7.588-3.074-1.824-6.051-1.824-9.22 0-4.707 2.786-9.413 5.57-14.215 8.164-3.745 2.017-5.09 5.09-5.09 9.22.096 13.926-.096 27.948.096 41.874.096 4.706-1.729 7.683-5.762 9.892-11.237 6.243-22.282 12.678-33.423 19.016-5.474 3.17-7.875 1.825-7.875-4.418 0-15.75 0-31.405-.096-47.156Z" fill="#333"/>
      <path d="M148.186 62.33a1 1 0 0 1 .874.498l2.782 4.781 11.756-.08-.622-1.12a1 1 0 0 1 .74-1.476l.117-.009 5.474-.096a1 1 0 0 1 .881.495l5.014 8.583 1.305 2.457 15.444-2.114a1 1 0 0 1 .934.389l.067.1 3.84 6.627 1.73 2.976 16.71 28.716a1 1 0 0 1 .009.992L194.4 151.313a1 1 0 0 1-1.717.048l-55.608-87.397a1 1 0 0 1 .835-1.537l10.276-.096Zm36.004-8.643a1 1 0 0 1 .874.479l5.283 8.643a1 1 0 0 1-.834 1.522l-9.508.192a1 1 0 0 1-.867-.468l-2.299-3.662h-3.577a1 1 0 0 1-.77-.363l-.076-.104-2.785-4.417a1 1 0 0 1 .825-1.534l13.734-.288Zm-41.004-13.734a1 1 0 0 1 .88.5l.758 1.306 5.55-.173a1 1 0 0 1 .819.385l.068.098 6.146 10.18a1 1 0 0 1-.837 1.517l-10.084.192a1 1 0 0 1-.877-.485l-3.167-5.278H140.8a1 1 0 0 1-.78-.373l-.074-.106-3.745-6.146a1 1 0 0 1 .838-1.52l6.147-.097Zm16.126-11.524a1 1 0 0 1 .872.47l1.138 1.821 8.076-.179a1 1 0 0 1 .812.386l.067.097L177 42.165a1 1 0 0 1-.84 1.517l-11.14.192a1 1 0 0 1-.871-.48l-3.737-6.137-4.707.086a1 1 0 0 1-.794-.369l-.076-.107-4.13-6.723a1 1 0 0 1 .827-1.523l7.78-.192Zm-29.003 1.728a1 1 0 0 1 .878.482l2.21 3.65a1 1 0 0 1-.833 1.517l-4.226.096a1 1 0 0 1-.879-.482l-2.208-3.65a1 1 0 0 1 .832-1.517l4.226-.096Zm12.953-2.593a1 1 0 0 1 .891.483l2.786 4.61a1 1 0 0 1-.82 1.516l-5.379.192a1 1 0 0 1-.892-.482l-2.785-4.61a1 1 0 0 1 .82-1.516l5.379-.193Zm-11.7-8.74a1 1 0 0 1 .87.476l3.073 4.994a1 1 0 0 1-.832 1.524l-5.09.096a1 1 0 0 1-.871-.476l-3.073-4.994a1 1 0 0 1 .832-1.524l5.09-.096Zm28.71-3.265a1 1 0 0 1 .881.483l3.938 6.531a1 1 0 0 1-.83 1.516l-7.492.192a1 1 0 0 1-.882-.483l-3.938-6.53a1 1 0 0 1 .83-1.517l7.492-.192Zm-17.95-5.282a1 1 0 0 1 .871.483l3.65 6.05a1 1 0 0 1-.84 1.517l-6.051.096a1 1 0 0 1-.872-.483l-3.65-6.051a1 1 0 0 1 .84-1.516l6.051-.096Zm-15.187-8.452a1 1 0 0 1 .88.477l1.825 2.978a1 1 0 0 1-.825 1.522l-3.457.096a1 1 0 0 1-.88-.477l-1.826-2.978a1 1 0 0 1 .825-1.522l3.458-.096ZM153.07 0a1 1 0 0 1 .878.482l2.21 3.65a1 1 0 0 1-.834 1.517l-4.226.096a1 1 0 0 1-.878-.482l-2.209-3.65a1 1 0 0 1 .833-1.517L153.071 0Z" fill="#333"/>
      <path d="M227.718 68.997c4.418-7.587 8.836-15.174 13.157-22.762.96-1.632 2.113-2.305 4.034-2.305 12.87.097 25.74 0 38.513 0 3.65 0 4.61 1.441 3.073 4.803-4.034 6.818-8.164 13.541-11.813 20.552-4.322 7.396-8.644 14.695-12.966 22.09-9.508 16.519-19.016 33.038-28.62 49.461-4.706 7.876-9.316 15.75-14.694 23.242-1.153 1.633-2.401 3.266-3.746 4.706-3.457 3.65-6.339 3.65-9.796-.096-1.633-1.729-6.915-9.412-4.13-4.898-4.514-7.107-9.988-15.175-14.502-22.282 1.44-3.361 17.287-31.981 21.417-39.184.48-.48 14.022-22.858 20.073-33.327Z" fill="#F4DD4B"/>
      <path d="m186.324 141.508 21.897-40.24-5.954-9.99"/>
    </symbol>

    <!-- git icon -->
    <symbol id="git" viewBox="0 0 32 32">
      <path d="M2.585 17.413a1.999 1.999 0 0 1 0-2.826L14.587 2.585c.78-.78 2.046-.78 2.826 0l12.002 12.002c.78.78.78 2.046 0 2.826L17.413 29.415c-.78.78-2.046.78-2.826 0L2.585 17.413Z" fill="#EE513B"/>
      <path d="m12.149 5.062-1.215 1.215 3.139 3.139A2.126 2.126 0 0 0 15.25 12.3v7.679a2.126 2.126 0 1 0 1.718.097v-7.765l3 3a2.125 2.125 0 1 0 1.283-1.147l-3.221-3.223a2.125 2.125 0 0 0-2.66-2.66l-3.221-3.22Z" fill="#fff"/>
    </symbol>

    <!-- aws icon -->
    <symbol id="aws" viewBox="0 0 16 16">
      <path fill="#252F3E" d="M4.51 7.687c0 .197.02.357.058.475.042.117.096.245.17.384a.233.233 0 0 1 .037.123c0 .053-.032.107-.1.16l-.336.224a.255.255 0 0 1-.138.048c-.054 0-.107-.026-.16-.074a1.652 1.652 0 0 1-.192-.251 4.137 4.137 0 0 1-.165-.315c-.415.491-.936.737-1.564.737-.447 0-.804-.129-1.064-.385-.261-.256-.394-.598-.394-1.025 0-.454.16-.822.484-1.1.325-.278.756-.416 1.304-.416.18 0 .367.016.564.042.197.027.4.07.612.118v-.39c0-.406-.085-.689-.25-.854-.17-.166-.458-.246-.868-.246-.186 0-.377.022-.574.07a4.23 4.23 0 0 0-.575.181 1.525 1.525 0 0 1-.186.07.326.326 0 0 1-.085.016c-.075 0-.112-.054-.112-.166v-.262c0-.085.01-.15.037-.186a.399.399 0 0 1 .15-.113c.185-.096.409-.176.67-.24.26-.07.537-.101.83-.101.633 0 1.096.144 1.394.432.293.288.442.726.442 1.314v1.73h.01zm-2.161.811c.175 0 .356-.032.548-.096.191-.064.362-.182.505-.342a.848.848 0 0 0 .181-.341c.032-.129.054-.283.054-.465V7.03a4.43 4.43 0 0 0-.49-.09 3.996 3.996 0 0 0-.5-.033c-.357 0-.618.07-.793.214-.176.144-.26.347-.26.614 0 .25.063.437.196.566.128.133.314.197.559.197zm4.273.577c-.096 0-.16-.016-.202-.054-.043-.032-.08-.106-.112-.208l-1.25-4.127a.938.938 0 0 1-.049-.214c0-.085.043-.133.128-.133h.522c.1 0 .17.016.207.053.043.032.075.107.107.208l.894 3.535.83-3.535c.026-.106.058-.176.1-.208a.365.365 0 0 1 .214-.053h.425c.102 0 .17.016.213.053.043.032.08.107.101.208l.841 3.578.92-3.578a.458.458 0 0 1 .107-.208.346.346 0 0 1 .208-.053h.495c.085 0 .133.043.133.133 0 .027-.006.054-.01.086a.76.76 0 0 1-.038.133l-1.283 4.127c-.032.107-.069.177-.111.209a.34.34 0 0 1-.203.053h-.457c-.101 0-.17-.016-.213-.053-.043-.038-.08-.107-.101-.214L8.213 5.37l-.82 3.439c-.026.107-.058.176-.1.213-.043.038-.118.054-.213.054h-.458zm6.838.144a3.51 3.51 0 0 1-.82-.096c-.266-.064-.473-.134-.612-.214-.085-.048-.143-.101-.165-.15a.378.378 0 0 1-.031-.149v-.272c0-.112.042-.166.122-.166a.3.3 0 0 1 .096.016c.032.011.08.032.133.054.18.08.378.144.585.187.213.042.42.064.633.064.336 0 .596-.059.777-.176a.575.575 0 0 0 .277-.508.52.52 0 0 0-.144-.373c-.095-.102-.276-.193-.537-.278l-.772-.24c-.388-.123-.676-.305-.851-.545a1.275 1.275 0 0 1-.266-.774c0-.224.048-.422.143-.593.096-.17.224-.32.384-.438a1.7 1.7 0 0 1 .553-.277c.213-.064.436-.091.67-.091.118 0 .24.005.357.021a3.4 3.4 0 0 1 .649.145c.096.032.17.064.224.096a.46.46 0 0 1 .16.133.289.289 0 0 1 .047.176v.251c0 .112-.042.171-.122.171a.552.552 0 0 1-.202-.064 2.427 2.427 0 0 0-1.022-.208c-.303 0-.543.048-.708.15-.165.1-.25.256-.25.475 0 .149.053.277.16.379.106.101.303.202.585.293l.756.24c.383.123.66.294.825.513.165.219.244.47.244.748 0 .23-.047.437-.138.619a1.436 1.436 0 0 1-.388.47c-.165.133-.362.23-.591.299a2.52 2.52 0 0 1-.761.112z"/>
      <g fill="#F90" fill-rule="evenodd" clip-rule="evenodd">
      <path d="M14.465 11.813c-1.75 1.297-4.294 1.986-6.481 1.986-3.065 0-5.827-1.137-7.913-3.027-.165-.15-.016-.353.18-.235 2.257 1.313 5.04 2.109 7.92 2.109 1.941 0 4.075-.406 6.039-1.239.293-.133.543.192.255.406z"/>
      <path d="M15.194 10.98c-.223-.287-1.479-.138-2.048-.069-.17.022-.197-.128-.043-.24 1-.705 2.645-.502 2.836-.267.192.24-.053 1.89-.99 2.68-.143.123-.281.06-.218-.1.213-.53.687-1.72.463-2.003z"/>
      </g>
    </symbol>

    <!-- azure icon -->
    <symbol id="azure" viewBox="0 0 16 16">
      <path d="m7.47 12.412 3.348-.592.031-.007-1.722-2.049a291.474 291.474 0 0 1-1.723-2.058c0-.01 1.779-4.909 1.789-4.926a788.95 788.95 0 0 1 2.934 5.066l2.95 5.115.023.039-10.948-.001 3.317-.587zM.9 11.788c0-.003.811-1.412 1.803-3.131L4.507 5.53l2.102-1.764C7.765 2.797 8.714 2 8.717 2a.37.37 0 0 1-.033.085L6.4 6.981l-2.24 4.808-1.63.002c-.897.001-1.63 0-1.63-.003z" fill="#0089D6"/>
    </symbol>

    <!-- docker icon -->
    <symbol id="docker" viewBox="0 0 16 16">
    <path fill="#2396ED" d="m12.342 4.536.15-.227.262.159.116.083c.28.216.869.768.996 1.684.223-.04.448-.06.673-.06.534 0 .893.124 1.097.227l.105.057.068.045.191.156-.066.2a2.044 2.044 0 0 1-.47.73c-.29.299-.8.652-1.609.698l-.178.005h-.148c-.37.977-.867 2.078-1.702 3.066a7.081 7.081 0 0 1-1.74 1.488 7.941 7.941 0 0 1-2.549.968c-.644.125-1.298.187-1.953.185-1.45 0-2.73-.288-3.517-.792-.703-.449-1.243-1.182-1.606-2.177a8.25 8.25 0 0 1-.461-2.83.516.516 0 0 1 .432-.516l.068-.005h10.54l.092-.007.149-.016c.256-.034.646-.11.92-.27-.328-.543-.421-1.178-.268-1.854a3.3 3.3 0 0 1 .3-.81l.108-.187zM2.89 5.784l.04.007a.127.127 0 0 1 .077.082l.006.04v1.315l-.006.041a.127.127 0 0 1-.078.082l-.039.006H1.478a.124.124 0 0 1-.117-.088l-.007-.04V5.912l.007-.04a.127.127 0 0 1 .078-.083l.039-.006H2.89zm1.947 0 .039.007a.127.127 0 0 1 .078.082l.006.04v1.315l-.007.041a.127.127 0 0 1-.078.082l-.039.006H3.424a.125.125 0 0 1-.117-.088L3.3 7.23V5.913a.13.13 0 0 1 .085-.123l.039-.007h1.413zm1.976 0 .039.007a.127.127 0 0 1 .077.082l.007.04v1.315l-.007.041a.127.127 0 0 1-.078.082l-.039.006H5.4a.124.124 0 0 1-.117-.088l-.006-.04V5.912l.006-.04a.127.127 0 0 1 .078-.083l.039-.006h1.413zm1.952 0 .039.007a.127.127 0 0 1 .078.082l.007.04v1.315a.13.13 0 0 1-.085.123l-.04.006H7.353a.124.124 0 0 1-.117-.088l-.006-.04V5.912l.006-.04a.127.127 0 0 1 .078-.083l.04-.006h1.412zm1.97 0 .039.007a.127.127 0 0 1 .078.082l.006.04v1.315a.13.13 0 0 1-.085.123l-.039.006H9.322a.124.124 0 0 1-.117-.088l-.006-.04V5.912l.006-.04a.127.127 0 0 1 .078-.083l.04-.006h1.411zm-5.9-1.892.04.007a.127.127 0 0 1 .077.081l.007.041v1.315a.13.13 0 0 1-.085.123l-.039.007H3.424a.125.125 0 0 1-.117-.09l-.007-.04V4.021a.13.13 0 0 1 .085-.122l.039-.007h1.412zm1.976 0 .04.007a.127.127 0 0 1 .077.081l.007.041v1.315a.13.13 0 0 1-.085.123l-.039.007H5.4a.125.125 0 0 1-.117-.09l-.006-.04V4.021l.006-.04a.127.127 0 0 1 .078-.082l.039-.007h1.412zm1.953 0c.054 0 .1.037.117.088l.007.041v1.315a.13.13 0 0 1-.085.123l-.04.007h-1.41a.125.125 0 0 1-.117-.09l-.006-.04V4.021l.006-.04a.127.127 0 0 1 .078-.082l.04-.007h1.412zm0-1.892c.054 0 .1.037.117.088l.007.04v1.316a.13.13 0 0 1-.085.123l-.04.006h-1.41a.124.124 0 0 1-.117-.088l-.006-.04V2.128l.006-.04a.127.127 0 0 1 .078-.082L7.353 2h1.412z"/>
    </symbol>

    <!-- gcloud icon -->
    <symbol id="gcloud" viewBox="0 -25 256 256" preserveAspectRatio="xMidYMid">
      <path d="m170.252 56.819 22.253-22.253 1.483-9.37C153.437-11.677 88.976-7.496 52.42 33.92 42.267 45.423 34.734 59.764 30.717 74.573l7.97-1.123 44.505-7.34 3.436-3.513c19.797-21.742 53.27-24.667 76.128-6.168l7.496.39Z" fill="#EA4335"/>
      <path d="M224.205 73.918a100.249 100.249 0 0 0-30.217-48.722l-31.232 31.232a55.515 55.515 0 0 1 20.379 44.037v5.544c15.35 0 27.797 12.445 27.797 27.796 0 15.352-12.446 27.485-27.797 27.485h-55.671l-5.466 5.934v33.34l5.466 5.231h55.67c39.93.311 72.553-31.494 72.864-71.424a72.303 72.303 0 0 0-31.793-60.453" fill="#4285F4"/>
      <path d="M71.87 205.796h55.593V161.29H71.87a27.275 27.275 0 0 1-11.399-2.498l-7.887 2.42-22.409 22.253-1.952 7.574c12.567 9.489 27.9 14.825 43.647 14.757" fill="#34A853"/>
      <path d="M71.87 61.425C31.94 61.664-.237 94.228.001 134.159a72.301 72.301 0 0 0 28.222 56.88l32.248-32.246c-13.99-6.322-20.208-22.786-13.887-36.776 6.32-13.99 22.786-20.208 36.775-13.888a27.796 27.796 0 0 1 13.887 13.888l32.248-32.248A72.224 72.224 0 0 0 71.87 61.425" fill="#FBBC05"/>
    </symbol>

    <!-- linux icon -->
    <symbol id="linux" viewBox="0 0 16 16">
      <path fill="#202020" d="M13.338 12.033c-.1-.112-.146-.319-.197-.54-.05-.22-.107-.457-.288-.61v-.001a.756.756 0 0 0-.223-.134c.252-.745.153-1.487-.1-2.157-.312-.823-.855-1.54-1.27-2.03-.464-.586-.918-1.142-.91-1.963.014-1.254.138-3.579-2.068-3.582-.09 0-.183.004-.28.012-2.466.198-1.812 2.803-1.849 3.675-.045.638-.174 1.14-.613 1.764-.515.613-1.24 1.604-1.584 2.637-.162.487-.24.984-.168 1.454a.762.762 0 0 0-.064.063c-.151.161-.263.357-.388.489-.116.116-.282.16-.464.225-.183.066-.383.162-.504.395v.001a.702.702 0 0 0-.077.339c0 .108.016.217.032.322.034.22.068.427.023.567-.144.395-.163.667-.061.865.102.199.31.286.547.335.473.1 1.114.075 1.619.342l.043-.082-.043.082c.54.283 1.089.383 1.526.284a.99.99 0 0 0 .706-.552c.342-.002.717-.146 1.318-.18.408-.032.918.145 1.503.113a.806.806 0 0 0 .068.183l.001.001c.227.455.65.662 1.1.627.45-.036.928-.301 1.315-.762l-.07-.06.07.06c.37-.448.982-.633 1.388-.878.203-.123.368-.276.38-.499.013-.222-.118-.471-.418-.805z"/>
      <path fill="#F8BF11" d="M13.571 12.828c-.007.137-.107.24-.29.35-.368.222-1.019.414-1.434.918-.362.43-.802.665-1.19.696-.387.03-.721-.13-.919-.526v-.002c-.123-.233-.072-.6.031-.987s.251-.785.271-1.108v-.001c.02-.415.044-.776.114-1.055.07-.28.179-.468.373-.575a.876.876 0 0 1 .027-.014c.022.359.2.725.514.804.343.09.838-.204 1.047-.445l.122-.004c.184-.005.337.006.495.143v.001c.121.102.179.296.229.512.05.217.09.453.239.621.287.32.38.534.371.672zm-6.979 1.015v.003c-.034.435-.28.672-.656.758-.377.086-.888 0-1.398-.266-.565-.3-1.237-.27-1.667-.36-.216-.045-.357-.113-.421-.238-.064-.126-.066-.345.071-.72v-.001l.001-.002c.068-.209.018-.438-.015-.653-.033-.214-.049-.41.024-.546l.001-.001c.094-.181.232-.246.403-.307.17-.062.373-.11.533-.27l.001-.001h.001c.148-.157.26-.353.39-.492.11-.117.22-.195.385-.196h.005a.61.61 0 0 1 .093.008c.22.033.411.187.596.437l.533.971v.001c.142.296.441.622.695.954.254.333.45.666.425.921z"/>
      <path fill="#D6A312" d="M9.25 4.788c-.043-.084-.13-.164-.28-.225-.31-.133-.444-.142-.617-.254-.28-.181-.513-.244-.706-.244a.834.834 0 0 0-.272.047c-.236.08-.392.25-.49.342-.02.019-.044.035-.104.08-.06.043-.15.11-.28.208-.117.086-.154.2-.114.332.04.132.167.285.4.417h.001c.145.085.244.2.358.291a.801.801 0 0 0 .189.117.756.756 0 0 0 .26.058c.248.015.43-.06.59-.151.16-.092.296-.204.452-.255h.001c.32-.1.548-.301.62-.493a.324.324 0 0 0-.008-.27z"/>
      <path fill="#202020" d="M8.438 5.26c-.255.133-.552.294-.869.294-.316 0-.566-.146-.745-.289-.09-.07-.163-.142-.218-.193-.096-.075-.084-.181-.045-.178.066.008.076.095.117.134.056.052.126.12.211.187.17.135.397.266.68.266.284 0 .614-.166.816-.28.115-.064.26-.179.379-.266.09-.067.087-.147.162-.138.075.009.02.089-.085.18-.105.092-.27.214-.403.283z"/>
      <path fill="#fff" d="M12.337 10.694a1.724 1.724 0 0 0-.104 0h-.01c.088-.277-.106-.48-.621-.713-.534-.235-.96-.212-1.032.265a.632.632 0 0 0-.011.076.801.801 0 0 0-.12.054c-.252.137-.389.386-.465.692-.076.305-.098.674-.119 1.09-.013.208-.099.49-.186.79-.875.624-2.09.894-3.122.19-.07-.11-.15-.22-.233-.328a13.85 13.85 0 0 0-.16-.205.65.65 0 0 0 .268-.05.34.34 0 0 0 .186-.192c.063-.17 0-.408-.202-.68-.201-.273-.542-.58-1.043-.888-.368-.23-.574-.51-.67-.814-.097-.305-.084-.635-.01-.96.143-.625.51-1.233.743-1.614.063-.046.023.086-.236.567-.232.44-.667 1.455-.072 2.248a4.69 4.69 0 0 1 .377-1.677c.329-.747 1.018-2.041 1.072-3.073.029.02.125.086.169.11.126.075.221.184.344.283a.85.85 0 0 0 .575.2c.24 0 .427-.079.582-.168.17-.096.304-.204.433-.245.27-.085.486-.235.608-.41.21.83.7 2.027 1.014 2.611.167.31.5.969.643 1.762.091-.002.191.01.299.038.375-.973-.319-2.022-.636-2.314-.128-.124-.135-.18-.07-.177.343.304.795.917.96 1.608.075.315.09.646.01.973.04.017.08.034.12.054.603.293.826.548.719.897z"/>
      <path fill="#E6E6E6" d="M8.04 8.062c-.556.002-1.099.251-1.558.716-.46.464-.814 1.122-1.018 1.888l.061.038v.004c.47.298.805.598 1.012.878.219.296.316.584.223.834a.513.513 0 0 1-.27.283l-.041.015c.074.097.146.197.213.3.944.628 2.042.396 2.867-.172.08-.278.153-.536.163-.698.021-.415.042-.792.124-1.12.082-.33.242-.63.544-.795.017-.01.034-.015.051-.023a.756.756 0 0 1 .022-.094c-.242-.622-.591-1.14-1.01-1.5-.42-.36-.897-.551-1.382-.554zm2.37 2.155-.002.005v-.002l.001-.004z"/>
      <path fill="#fff" d="M9.278 3.833a1.05 1.05 0 0 1-.215.656 4.119 4.119 0 0 0-.218-.09l-.127-.045c.029-.035.085-.075.107-.127a.669.669 0 0 0 .05-.243l.001-.01a.673.673 0 0 0-.035-.236.434.434 0 0 0-.108-.184.223.223 0 0 0-.156-.07H8.57a.228.228 0 0 0-.151.06.434.434 0 0 0-.122.175.676.676 0 0 0-.05.243v.01a.718.718 0 0 0 .009.14 1.773 1.773 0 0 0-.354-.12 1.196 1.196 0 0 1-.01-.133v-.013a1.035 1.035 0 0 1 .088-.447.793.793 0 0 1 .25-.328.554.554 0 0 1 .346-.123h.006c.125 0 .232.036.342.116a.78.78 0 0 1 .257.324c.063.138.094.273.097.433l.001.012zm-1.89.164a1.05 1.05 0 0 0-.277.125.623.623 0 0 0 .002-.15v-.008a.651.651 0 0 0-.048-.192.37.37 0 0 0-.096-.141.158.158 0 0 0-.119-.045.156.156 0 0 0-.11.065.372.372 0 0 0-.07.156.626.626 0 0 0-.013.205v.008a.634.634 0 0 0 .048.193.367.367 0 0 0 .116.156l-.102.08-.078.056a.706.706 0 0 1-.16-.24 1.06 1.06 0 0 1-.09-.381v-.001a1.071 1.071 0 0 1 .045-.39.668.668 0 0 1 .167-.292.359.359 0 0 1 .264-.118.36.36 0 0 1 .235.09.68.68 0 0 1 .199.271c.053.12.08.24.089.382v.001c.003.06.003.115-.002.17z"/>
      <path fill="#202020" d="M7.806 4.335c.01.034.065.029.097.045.027.014.05.045.08.046.03.001.076-.01.08-.04.005-.038-.052-.063-.088-.077-.047-.019-.107-.028-.151-.003-.01.005-.021.018-.018.03zm-.322 0c-.01.034-.065.029-.096.045-.028.014-.05.045-.081.046-.03.001-.076-.01-.08-.04-.005-.038.052-.063.088-.077.047-.019.108-.028.152-.003.01.005.02.018.017.03z"/>
    </symbol>

    <!-- figma icon -->
    <symbol id="figma" viewBox="0 0 32 32">
      <g fill-rule="evenodd" clip-rule="evenodd">
      <path d="M16 16a4 4 0 1 1 8 0 4 4 0 0 1-8 0Z" fill="#1ABCFE"/>
      <path d="M8 24a4 4 0 0 1 4-4h4v4a4 4 0 0 1-8 0Z" fill="#0ACF83"/>
      <path d="M16 4v8h4a4 4 0 0 0 0-8h-4Z" fill="#FF7262"/>
      <path d="M8 8a4 4 0 0 0 4 4h4V4h-4a4 4 0 0 0-4 4Z" fill="#F24E1E"/>
      <path d="M8 16a4 4 0 0 0 4 4h4v-8h-4a4 4 0 0 0-4 4Z" fill="#A259FF"/>
      </g>
    </symbol>

    <!-- npm icon -->
    <symbol id="npm" viewBox="0 0 32 32">
      <path d="M0 10v10h9v2h7v-2h16V10H0Z" fill="#CB3837"/>
      <path d="M5.462 12H2v6h3.462v-4.389h1.761V18h1.762v-6H5.462Zm5.284 0v8h3.523v-2h3.462v-6h-6.985Zm5.224 4.389h-1.701V13.61h1.7v2.778ZM22.954 12h-3.462v6h3.462v-4.389h1.762V18h1.761v-4.389h1.762V18H30v-6h-7.046Z" fill="#fff"/>
    </symbol>

    <!-- pnpm icon -->
    <symbol id="pnpm" viewBox="0 0 32 32">
      <path d="M30 10.75h-8.749V2H30ZM20.374 10.75h-8.75V2h8.75ZM10.749 10.75H2V2h8.749ZM30 20.375h-8.749v-8.75H30Z" style="fill:#f9ad00"/>
      <path d="M20.374 20.375h-8.75v-8.75h8.75ZM20.374 30h-8.75v-8.75h8.75ZM30 30h-8.749v-8.75H30ZM10.749 30H2v-8.75h8.749Z" style="fill:#4e4e4e"/>
    </symbol>

    <!-- yarn icon -->
    <symbol id="yarn" viewBox="0 0 32 32">
      <path d="M28.208 24.409a10.493 10.493 0 0 0-3.959 1.822 23.743 23.743 0 0 1-5.835 2.642 1.632 1.632 0 0 1-.983.55 62.228 62.228 0 0 1-6.447.577c-1.163.009-1.876-.3-2.074-.776a1.573 1.573 0 0 1 .866-2.074 3.759 3.759 0 0 1-.514-.379c-.171-.171-.352-.514-.406-.388-.225.55-.343 1.894-.947 2.5-.83.839-2.4.559-3.328.072-1.019-.541.072-1.813.072-1.813a.73.73 0 0 1-.992-.343 4.847 4.847 0 0 1-.667-2.949 5.374 5.374 0 0 1 1.749-2.895 9.334 9.334 0 0 1 .658-4.4 10.445 10.445 0 0 1 3.165-3.661S6.628 10.747 7.35 8.817c.469-1.262.658-1.253.812-1.308a3.633 3.633 0 0 0 1.452-.857 5.265 5.265 0 0 1 4.41-1.7S15.2 1.4 16.277 2.09a18.349 18.349 0 0 1 1.533 2.886s1.281-.748 1.425-.469a11.334 11.334 0 0 1 .523 6.132 14.01 14.01 0 0 1-2.6 5.411c-.135.225 1.551.938 2.615 3.887.983 2.7.108 4.96.262 5.212.027.045.036.063.036.063s1.127.09 3.391-1.308a8.5 8.5 0 0 1 4.277-1.604 1.081 1.081 0 0 1 .469 2.11Z" style="fill:#2188b6"/>
    </symbol>

    <!-- bun icon -->
    <symbol id="bun" viewBox="0 0 80 70">
      <path d="M71.09 20.74c-.16-.17-.33-.34-.5-.5s-.33-.34-.5-.5-.33-.34-.5-.5-.33-.34-.5-.5-.33-.34-.5-.5-.33-.34-.5-.5-.33-.34-.5-.5A26.46 26.46 0 0 1 75.5 35.7c0 16.57-16.82 30.05-37.5 30.05-11.58 0-21.94-4.23-28.83-10.86l.5.5.5.5.5.5.5.5.5.5.5.5.5.5C19.55 65.3 30.14 69.75 42 69.75c20.68 0 37.5-13.48 37.5-30 0-7.06-3.04-13.75-8.41-19.01Z"/>
      <path d="M73 35.7c0 15.21-15.67 27.54-35 27.54S3 50.91 3 35.7C3 26.27 9 17.94 18.22 13S33.18 3 38 3s8.94 4.13 19.78 10C67 17.94 73 26.27 73 35.7Z" style="fill:#fbf0df"/>
      <path data-name="Bottom Shadow" d="M73 35.7a21.67 21.67 0 0 0-.8-5.78c-2.73 33.3-43.35 34.9-59.32 24.94A40 40 0 0 0 38 63.24c19.3 0 35-12.35 35-27.54Z" style="fill:#f6dece"/>
      <path data-name="Light Shine" d="M24.53 11.17C29 8.49 34.94 3.46 40.78 3.45A9.29 9.29 0 0 0 38 3c-2.42 0-5 1.25-8.25 3.13-1.13.66-2.3 1.39-3.54 2.15-2.33 1.44-5 3.07-8 4.7C8.69 18.13 3 26.62 3 35.7v1.19c6.06-21.41 17.07-23.04 21.53-25.72Z" style="fill:#fffefc"/>
      <path d="M35.12 5.53A16.41 16.41 0 0 1 29.49 18c-.28.25-.06.73.3.59 3.37-1.31 7.92-5.23 6-13.14-.08-.45-.67-.33-.67.08Zm2.27 0A16.24 16.24 0 0 1 39 19c-.12.35.31.65.55.36 2.19-2.8 4.1-8.36-1.62-14.36-.29-.26-.74.14-.54.49Zm2.76-.17A16.42 16.42 0 0 1 47 17.12a.33.33 0 0 0 .65.11c.92-3.49.4-9.44-7.17-12.53-.4-.16-.66.38-.33.62Zm-18.46 10.4a16.94 16.94 0 0 0 10.47-9c.18-.36.75-.22.66.18-1.73 8-7.52 9.67-11.12 9.45-.38.01-.37-.52-.01-.63Z" style="fill:#ccbea7;fill-rule:evenodd"/>
      <path d="M38 65.75C17.32 65.75.5 52.27.5 35.7c0-10 6.18-19.33 16.53-24.92 3-1.6 5.57-3.21 7.86-4.62 1.26-.78 2.45-1.51 3.6-2.19C32 1.89 35 .5 38 .5s5.62 1.2 8.9 3.14c1 .57 2 1.19 3.07 1.87 2.49 1.54 5.3 3.28 9 5.27C69.32 16.37 75.5 25.69 75.5 35.7c0 16.57-16.82 30.05-37.5 30.05ZM38 3c-2.42 0-5 1.25-8.25 3.13-1.13.66-2.3 1.39-3.54 2.15-2.33 1.44-5 3.07-8 4.7C8.69 18.13 3 26.62 3 35.7c0 15.19 15.7 27.55 35 27.55S73 50.89 73 35.7c0-9.08-5.69-17.57-15.22-22.7-3.78-2-6.73-3.88-9.12-5.36-1.09-.67-2.09-1.29-3-1.84C42.63 4 40.42 3 38 3Z"/>
      <path d="M45.05 43a8.93 8.93 0 0 1-2.92 4.71 6.81 6.81 0 0 1-4 1.88A6.84 6.84 0 0 1 34 47.71 8.93 8.93 0 0 1 31.12 43a.72.72 0 0 1 .8-.81h12.34a.72.72 0 0 1 .79.81Z" style="fill:#b71422" data-name="Background"/>
      <path data-name="Background" d="M34 47.79a6.91 6.91 0 0 0 4.12 1.9 6.91 6.91 0 0 0 4.11-1.9 10.63 10.63 0 0 0 1-1.07 6.83 6.83 0 0 0-4.9-2.31 6.15 6.15 0 0 0-5 2.78c.23.21.43.41.67.6Z" style="fill:#ff6164"/>
      <path data-name="Outline" d="M34.16 47a5.36 5.36 0 0 1 4.19-2.08 6 6 0 0 1 4 1.69c.23-.25.45-.51.66-.77a7 7 0 0 0-4.71-1.93 6.36 6.36 0 0 0-4.89 2.36 9.53 9.53 0 0 0 .75.73Z"/>
      <path data-name="Outline" d="M38.09 50.19a7.42 7.42 0 0 1-4.45-2 9.52 9.52 0 0 1-3.11-5.05 1.2 1.2 0 0 1 .26-1 1.41 1.41 0 0 1 1.13-.51h12.34a1.44 1.44 0 0 1 1.13.51 1.19 1.19 0 0 1 .25 1 9.52 9.52 0 0 1-3.11 5.05 7.42 7.42 0 0 1-4.44 2Zm-6.17-7.4c-.16 0-.2.07-.21.09a8.29 8.29 0 0 0 2.73 4.37A6.23 6.23 0 0 0 38.09 49a6.28 6.28 0 0 0 3.65-1.73 8.3 8.3 0 0 0 2.72-4.37.21.21 0 0 0-.2-.09Z"/>
      <ellipse data-name="Right Blush" cx="53.22" cy="40.18" rx="5.85" ry="3.44" style="fill:#febbd0"/>
      <ellipse data-name="Left Bluch" cx="22.95" cy="40.18" rx="5.85" ry="3.44" style="fill:#febbd0"/>
      <path d="M25.7 38.8a5.51 5.51 0 1 0-5.5-5.51 5.51 5.51 0 0 0 5.5 5.51Zm24.77 0A5.51 5.51 0 1 0 45 33.29a5.5 5.5 0 0 0 5.47 5.51Z" style="fill-rule:evenodd"/>
      <path d="M24 33.64a2.07 2.07 0 1 0-2.06-2.07A2.07 2.07 0 0 0 24 33.64Zm24.77 0a2.07 2.07 0 1 0-2.06-2.07 2.07 2.07 0 0 0 2.04 2.07Z" style="fill:#fff;fill-rule:evenodd"/>
    </symbol>

  </defs>
</svg>