<svg xmlns="http://www.w3.org/2000/svg">
  <defs>
  <!-- html icon -->
    <symbol id="html" viewBox="0 0 32 32">
      <path d="M6 28L4 3H28L26 28L16 31L6 28Z" fill="#E44D26"/>
      <path d="M26 5H16V29.5L24 27L26 5Z" fill="#F16529"/>
      <path d="M9.5 17.5L8.5 8H24L23.5 11H11.5L12 14.5H23L22 24L16 26L10 24L9.5 19H12.5L13 21.5L16 22.5L19 21.5L19.5 17.5H9.5Z" fill="white"/>
    </symbol>

    <!-- css icon -->
    <symbol id="css" viewBox="0 0 32 32">
    <path d="M6 28L4 3H28L26 28L16 31L6 28Z" fill="#1172B8"/>
    <path d="M26 5H16V29.5L24 27L26 5Z" fill="#33AADD"/>
    <path d="M19.5 17.5H9.5L9 14L17 11.5H9L8.5 8.5H24L23.5 12L17 14.5H23L22 24L16 26L10 24L9.5 19H12.5L13 21.5L16 22.5L19 21.5L19.5 17.5Z" fill="white"/>
    </symbol>

    <!-- sass icon -->
    <symbol id="sass" viewBox="0 0 32 32">
      <path d="M26.11 17.572a5.8 5.8 0 0 0-2.537.588 5.345 5.345 0 0 1-.568-1.314 3.53 3.53 0 0 1-.051-1.1 9.811 9.811 0 0 1 .332-1.192c-.005-.051-.061-.292-.624-.3s-1.048.107-1.1.256a6.171 6.171 0 0 0-.235.834 19.686 19.686 0 0 1-1.713 3.294 3.186 3.186 0 0 1-.44-2.066 9.811 9.811 0 0 1 .332-1.192c-.005-.051-.061-.292-.624-.3s-1.048.107-1.1.256-.118.5-.235.834-1.483 3.386-1.841 4.173c-.184.4-.343.726-.455.946a.233.233 0 0 1-.02.041l-.153.292v.005c-.077.138-.159.266-.2.266a1.711 1.711 0 0 1 .01-.869c.2-1.059.69-2.705.685-2.762 0-.031.092-.317-.317-.465a.508.508 0 0 0-.578.1c-.036 0-.061.087-.061.087s.445-1.851-.849-1.851a3.855 3.855 0 0 0-2.475 1.683c-.348.189-1.089.593-1.882 1.028-.3.169-.614.338-.905.5-.02-.02-.041-.046-.061-.066C6.87 17.6 3.975 16.416 4.1 14.171c.046-.818.327-2.966 5.559-5.575 4.306-2.122 7.733-1.534 8.326-.23.849 1.862-1.836 5.319-6.285 5.82a3.351 3.351 0 0 1-2.813-.711c-.235-.256-.271-.271-.358-.22-.143.077-.051.307 0 .44a2.626 2.626 0 0 0 1.606 1.263 8.55 8.55 0 0 0 5.217-.517c2.7-1.043 4.8-3.943 4.184-6.372-.619-2.465-4.71-3.278-8.582-1.9a19.5 19.5 0 0 0-6.595 3.783c-2.133 1.995-2.47 3.728-2.332 4.455.5 2.578 4.051 4.255 5.472 5.5a8.554 8.554 0 0 1-.194.107c-.711.353-3.421 1.77-4.1 3.268-.767 1.7.123 2.915.711 3.079a4.374 4.374 0 0 0 4.71-1.908 4.725 4.725 0 0 0 .423-4.353.107.107 0 0 0-.02-.031l.557-.327a27.2 27.2 0 0 1 1.028-.578 6.74 6.74 0 0 0-.363 1.862 3.886 3.886 0 0 0 .834 2.7.921.921 0 0 0 .675.22c.6 0 .875-.5 1.176-1.094.368-.726.7-1.57.7-1.57s-.414 2.281.711 2.281c.409 0 .823-.532 1.008-.8v.005l.031-.051.066-.107v-.01c.164-.286.532-.936 1.079-2.015.706-1.391 1.386-3.13 1.386-3.13a8.888 8.888 0 0 0 .271 1.13 10.643 10.643 0 0 0 .583 1.309c-.164.23-.266.358-.266.358l.005.005c-.133.174-.276.363-.435.547a16.3 16.3 0 0 0-1.314 1.647.447.447 0 0 0 .123.6 1.116 1.116 0 0 0 .685.113 3.147 3.147 0 0 0 1.028-.235 3.45 3.45 0 0 0 .885-.465 1.98 1.98 0 0 0 .849-1.744 3.521 3.521 0 0 0-.322-1.233c.051-.072.1-.143.148-.215a23.428 23.428 0 0 0 1.534-2.649 8.888 8.888 0 0 0 .271 1.13 7.57 7.57 0 0 0 .5 1.125 4.861 4.861 0 0 0-1.497 1.922c-.322.931-.072 1.35.4 1.447a1.425 1.425 0 0 0 .747-.153 3.4 3.4 0 0 0 .946-.486 2.126 2.126 0 0 0 1.043-1.729 3.268 3.268 0 0 0-.235-1.023 5.356 5.356 0 0 1 2.716-.312c2.434.286 2.915 1.805 2.823 2.445a1.618 1.618 0 0 1-.772 1.094c-.169.107-.225.143-.21.22.02.113.1.107.245.087A1.9 1.9 0 0 0 30 20.7c.077-1.5-1.355-3.145-3.887-3.13ZM7.33 23.9c-.808.88-1.933 1.212-2.419.931-.522-.3-.317-1.6.675-2.532a12.884 12.884 0 0 1 1.9-1.417c.118-.072.292-.174.5-.3l.056-.031.123-.077A3.493 3.493 0 0 1 7.33 23.9Zm5.881-4c-.281.685-.869 2.44-1.227 2.342-.307-.082-.5-1.412-.061-2.726a6.193 6.193 0 0 1 .956-1.754c.44-.491.926-.655 1.043-.455a9.062 9.062 0 0 1-.711 2.593Zm4.853 2.322c-.118.061-.23.1-.281.072-.036-.02.051-.1.051-.1s.609-.655.849-.951c.138-.174.3-.378.476-.609v.066c0 .782-.757 1.309-1.094 1.524Zm3.744-.854c-.087-.061-.072-.266.22-.905a3.408 3.408 0 0 1 .834-1.074 1.448 1.448 0 0 1 .082.471 1.547 1.547 0 0 1-1.135 1.509Z" style="fill:#cd6799"/>
    </symbol>

    <!-- javascript icon -->
    <symbol id="javascript" viewBox="0 0 630 630">
      <rect width="630" height="630" fill="#f7df1e"/>
      <path fill="black" d="m423.2 492.19c12.69 20.72 29.2 35.95 58.4 35.95 24.53 0 40.2-12.26 40.2-29.2 0-20.3-16.1-27.49-43.1-39.3l-14.8-6.35c-42.72-18.2-71.1-41-71.1-89.2 0-44.4 33.83-78.2 86.7-78.2 37.64 0 64.7 13.1 84.2 47.4l-46.1 29.6c-10.15-18.2-21.1-25.37-38.1-25.37-17.34 0-28.33 11-28.33 25.37 0 17.76 11 24.95 36.4 35.95l14.8 6.34c50.3 21.57 78.7 43.56 78.7 93 0 53.3-41.87 82.5-98.1 82.5-54.98 0-90.5-26.2-107.88-60.54zm-209.13 5.13c9.3 16.5 17.76 30.45 38.1 30.45 19.45 0 31.72-7.61 31.72-37.2v-201.3h59.2v202.1c0 61.3-35.94 89.2-88.4 89.2-47.4 0-74.85-24.53-88.81-54.075z"/>
    </symbol>

    <!-- typescript icon -->
    <symbol id="typescript" fill="none" viewBox="0 0 512 512">
      <rect fill="#3178c6" height="512" rx="50" width="512"/>
      <rect fill="#3178c6" height="512" rx="50" width="512"/>
      <path clip-rule="evenodd" fill="#fff" fill-rule="evenodd" d="m316.939 407.424v50.061c8.138 4.172 17.763 7.3 28.875 9.386s22.823 3.129 35.135 3.129c11.999 0 23.397-1.147 34.196-3.442 10.799-2.294 20.268-6.075 28.406-11.342 8.138-5.266 14.581-12.15 19.328-20.65s7.121-19.007 7.121-31.522c0-9.074-1.356-17.026-4.069-23.857s-6.625-12.906-11.738-18.225c-5.112-5.319-11.242-10.091-18.389-14.315s-15.207-8.213-24.18-11.967c-6.573-2.712-12.468-5.345-17.685-7.9-5.217-2.556-9.651-5.163-13.303-7.822-3.652-2.66-6.469-5.476-8.451-8.448-1.982-2.973-2.974-6.336-2.974-10.091 0-3.441.887-6.544 2.661-9.308s4.278-5.136 7.512-7.118c3.235-1.981 7.199-3.52 11.894-4.615 4.696-1.095 9.912-1.642 15.651-1.642 4.173 0 8.581.313 13.224.938 4.643.626 9.312 1.591 14.008 2.894 4.695 1.304 9.259 2.947 13.694 4.928 4.434 1.982 8.529 4.276 12.285 6.884v-46.776c-7.616-2.92-15.937-5.084-24.962-6.492s-19.381-2.112-31.066-2.112c-11.895 0-23.163 1.278-33.805 3.833s-20.006 6.544-28.093 11.967c-8.086 5.424-14.476 12.333-19.171 20.729-4.695 8.395-7.043 18.433-7.043 30.114 0 14.914 4.304 27.638 12.912 38.172 8.607 10.533 21.675 19.45 39.204 26.751 6.886 2.816 13.303 5.579 19.25 8.291s11.086 5.528 15.415 8.448c4.33 2.92 7.747 6.101 10.252 9.543 2.504 3.441 3.756 7.352 3.756 11.733 0 3.233-.783 6.231-2.348 8.995s-3.939 5.162-7.121 7.196-7.147 3.624-11.894 4.771c-4.748 1.148-10.303 1.721-16.668 1.721-10.851 0-21.597-1.903-32.24-5.71-10.642-3.806-20.502-9.516-29.579-17.13zm-84.159-123.342h64.22v-41.082h-179v41.082h63.906v182.918h50.874z"/>
    </symbol>

    <!-- reactjs icon -->
    <symbol id="react" viewBox="0 0 32 32">
      <circle cx="16" cy="15.974" r="2.5" style="fill:#00d8ff"/>
      <path d="M16 21.706a28.385 28.385 0 0 1-8.88-1.2 11.3 11.3 0 0 1-3.657-1.958A3.543 3.543 0 0 1 2 15.974c0-1.653 1.816-3.273 4.858-4.333A28.755 28.755 0 0 1 16 10.293a28.674 28.674 0 0 1 9.022 1.324 11.376 11.376 0 0 1 3.538 1.866A3.391 3.391 0 0 1 30 15.974c0 1.718-2.03 3.459-5.3 4.541a28.8 28.8 0 0 1-8.7 1.191Zm0-10.217a27.948 27.948 0 0 0-8.749 1.282c-2.8.977-4.055 2.313-4.055 3.2 0 .928 1.349 2.387 4.311 3.4A27.21 27.21 0 0 0 16 20.51a27.6 27.6 0 0 0 8.325-1.13C27.4 18.361 28.8 16.9 28.8 15.974a2.327 2.327 0 0 0-1.01-1.573 10.194 10.194 0 0 0-3.161-1.654A27.462 27.462 0 0 0 16 11.489Z" style="fill:#00d8ff"/>
      <path d="M10.32 28.443a2.639 2.639 0 0 1-1.336-.328c-1.432-.826-1.928-3.208-1.327-6.373a28.755 28.755 0 0 1 3.4-8.593 28.676 28.676 0 0 1 5.653-7.154 11.376 11.376 0 0 1 3.384-2.133 3.391 3.391 0 0 1 2.878 0c1.489.858 1.982 3.486 1.287 6.859a28.806 28.806 0 0 1-3.316 8.133 28.385 28.385 0 0 1-5.476 7.093 11.3 11.3 0 0 1-3.523 2.189 4.926 4.926 0 0 1-1.624.307Zm1.773-14.7a27.948 27.948 0 0 0-3.26 8.219c-.553 2.915-.022 4.668.75 5.114.8.463 2.742.024 5.1-2.036a27.209 27.209 0 0 0 5.227-6.79 27.6 27.6 0 0 0 3.181-7.776c.654-3.175.089-5.119-.713-5.581a2.327 2.327 0 0 0-1.868.089A10.194 10.194 0 0 0 17.5 6.9a27.464 27.464 0 0 0-5.4 6.849Z" style="fill:#00d8ff"/>
      <path d="M21.677 28.456c-1.355 0-3.076-.82-4.868-2.361a28.756 28.756 0 0 1-5.747-7.237 28.676 28.676 0 0 1-3.374-8.471 11.376 11.376 0 0 1-.158-4A3.391 3.391 0 0 1 8.964 3.9c1.487-.861 4.01.024 6.585 2.31a28.8 28.8 0 0 1 5.39 6.934 28.384 28.384 0 0 1 3.41 8.287 11.3 11.3 0 0 1 .137 4.146 3.543 3.543 0 0 1-1.494 2.555 2.59 2.59 0 0 1-1.315.324Zm-9.58-10.2a27.949 27.949 0 0 0 5.492 6.929c2.249 1.935 4.033 2.351 4.8 1.9.8-.465 1.39-2.363.782-5.434A27.212 27.212 0 0 0 19.9 13.74a27.6 27.6 0 0 0-5.145-6.64c-2.424-2.152-4.39-2.633-5.191-2.169a2.327 2.327 0 0 0-.855 1.662 10.194 10.194 0 0 0 .153 3.565 27.465 27.465 0 0 0 3.236 8.1Z" style="fill:#00d8ff"/>
    </symbol>

    <!-- nextjs icon -->
    <symbol id="next" viewBox="0 0 256 256">
      <path d="M119.617.069c-.55.05-2.302.225-3.879.35-36.36 3.278-70.419 22.894-91.99 53.044-12.012 16.764-19.694 35.78-22.597 55.922C.125 116.415 0 118.492 0 128.025c0 9.533.125 11.61 1.151 18.64 6.957 48.065 41.165 88.449 87.56 103.411 8.309 2.678 17.067 4.504 27.027 5.605 3.879.425 20.645.425 24.524 0 17.192-1.902 31.756-6.155 46.12-13.486 2.202-1.126 2.628-1.426 2.327-1.677-.2-.15-9.584-12.735-20.845-27.948l-20.47-27.648-25.65-37.956c-14.114-20.868-25.725-37.932-25.825-37.932-.1-.025-.2 16.84-.25 37.431-.076 36.055-.1 37.506-.551 38.357-.65 1.226-1.151 1.727-2.202 2.277-.801.4-1.502.475-5.28.475h-4.33l-1.15-.725a4.679 4.679 0 0 1-1.677-1.827l-.526-1.126.05-50.166.075-50.192.776-.976c.4-.525 1.251-1.2 1.852-1.526 1.026-.5 1.426-.55 5.755-.55 5.105 0 5.956.2 7.282 1.651.376.4 14.264 21.318 30.88 46.514 16.617 25.195 39.34 59.599 50.5 76.488l20.27 30.7 1.026-.675c9.084-5.905 18.693-14.312 26.3-23.07 16.191-18.59 26.626-41.258 30.13-65.428 1.026-7.031 1.151-9.108 1.151-18.64 0-9.534-.125-11.61-1.151-18.641-6.957-48.065-41.165-88.449-87.56-103.411-8.184-2.652-16.892-4.479-26.652-5.58-2.402-.25-18.943-.525-21.02-.325Zm52.401 77.414c1.201.6 2.177 1.752 2.527 2.953.2.65.25 14.562.2 45.913l-.074 44.987-7.933-12.16-7.958-12.16v-32.702c0-21.143.1-33.028.25-33.603.4-1.401 1.277-2.502 2.478-3.153 1.026-.525 1.401-.575 5.33-.575 3.704 0 4.354.05 5.18.5Z"/>
    </symbol>

    <!-- vuejs icon -->
    <symbol id="vue" viewBox="0 0 32 32">
      <path d="m2 4 14 24L30 4h-5.5L16 18.5 7.5 4H2Z" fill="#41B883"/>
      <path d="M7.5 4 16 18.5 24.5 4h-5l-3.435 6.013L12.5 4h-5Z" fill="#35495E"/>
    </symbol>

    <!-- nuxtjs icon -->
    <symbol id="nuxt" viewBox="0 -32.5 256 256">
      <g fill="none" fill-rule="evenodd">
      <path d="M77.891 183.615a9.437 9.437 0 0 1-.506-1.04 13.329 13.329 0 0 1-.906-7.517H15.993l89.888-158.184 29.51 51.875 8.557-15.141L118.224 8.29c-.72-1.306-5.065-8.29-12.556-8.29-3.385 0-8.237 1.466-12.182 8.397L2.425 168.5c-.773 1.386-4.532 8.664-.8 15.115 1.706 2.932 5.332 6.424 13.329 6.424H91.22c-7.944 0-11.623-3.439-13.329-6.424Z" fill="#01C58E"/>
      <path d="M253.242 168.5 178.416 36.68c-.773-1.386-5.092-8.397-12.61-8.397-3.385 0-8.236 1.44-12.182 8.37l-9.676 16.955 8.61 15.14 13.329-23.59 74.027 129.9h-28.15c.36 2.147.158 4.351-.587 6.398a8.157 8.157 0 0 1-.586 1.306l-.24.48c-3.785 6.45-11.97 6.797-13.568 6.797h44.037c1.626 0 9.783-.346 13.569-6.797 1.68-2.933 2.879-7.864-1.147-14.742Z" fill="#108775"/>
      <path d="m210.351 183.242.24-.48c.233-.418.43-.855.586-1.306.745-2.047.947-4.25.587-6.398a19.486 19.486 0 0 0-2.453-6.558l-56.7-99.751-8.663-15.141-8.61 15.14L78.664 168.5a20.18 20.18 0 0 0-2.185 6.558 13.329 13.329 0 0 0 .826 7.517c.147.357.316.704.506 1.04 1.706 2.932 5.332 6.424 13.329 6.424h105.563c1.679 0 9.863-.346 13.648-6.797ZM143.948 83.89l51.822 91.168H92.153l51.795-91.168Z" fill="#2F495E"/>
      </g>
    </symbol>

    <!-- tailwind icon -->
    <symbol id="tailwind" viewBox="0 0 47 40" fill="none">
      <path fill="#6366f1" d="M23.5 6.5C17.5 6.5 13.75 9.5 12.25 15.5C14.5 12.5 17.125 11.375 20.125 12.125C21.8367 12.5529 23.0601 13.7947 24.4142 15.1692C26.6202 17.4084 29.1734 20 34.75 20C40.75 20 44.5 17 46 11C43.75 14 41.125 15.125 38.125 14.375C36.4133 13.9471 35.1899 12.7053 33.8357 11.3308C31.6297 9.09158 29.0766 6.5 23.5 6.5ZM12.25 20C6.25 20 2.5 23 1 29C3.25 26 5.875 24.875 8.875 25.625C10.5867 26.0529 11.8101 27.2947 13.1642 28.6693C15.3702 30.9084 17.9234 33.5 23.5 33.5C29.5 33.5 33.25 30.5 34.75 24.5C32.5 27.5 29.875 28.625 26.875 27.875C25.1633 27.4471 23.9399 26.2053 22.5858 24.8307C20.3798 22.5916 17.8266 20 12.25 20Z"/>
    </symbol>

    <symbol id="bootstrap" viewBox="0 0 24 24">
      <path fill-rule="evenodd" clip-rule="evenodd" d="M4.985 2c-1.37 0-2.383 1.199-2.337 2.498.043 1.25-.013 2.867-.42 4.186-.41 1.322-1.1 2.16-2.228 2.268v1.215c1.128.107 1.819.945 2.227 2.268.408 1.319.464 2.936.42 4.185-.045 1.3.968 2.499 2.338 2.499h14.032c1.37 0 2.383-1.199 2.337-2.499-.043-1.249.013-2.866.42-4.185.409-1.323 1.098-2.16 2.226-2.268v-1.215c-1.128-.108-1.817-.946-2.226-2.268-.407-1.32-.463-2.937-.42-4.186C21.4 3.198 20.386 2 19.017 2H4.985ZM16.27 13.769c0 1.79-1.335 2.875-3.55 2.875H8.949a.407.407 0 0 1-.407-.407V6.881a.407.407 0 0 1 .407-.406h3.75c1.847 0 3.06 1 3.06 2.537 0 1.078-.816 2.043-1.855 2.213v.056c1.415.155 2.367 1.135 2.367 2.488ZM12.31 7.764h-2.15v3.038h1.811c1.4 0 2.172-.564 2.172-1.572 0-.944-.664-1.466-1.833-1.466Zm-2.15 4.243v3.347h2.23c1.457 0 2.23-.585 2.23-1.684 0-1.1-.794-1.663-2.324-1.663h-2.136Z" fill="#563D7C"/>
    </symbol>

    <!-- astro icon -->
    <symbol id="astro" viewBox="0 0 85 107">
      <path d="M27.5894 91.1365C22.7555 86.7178 21.3444 77.4335 23.3583 70.7072C26.8503 74.948 31.6888 76.2914 36.7005 77.0497C44.4375 78.2199 52.0359 77.7822 59.2232 74.2459C60.0454 73.841 60.8052 73.3027 61.7036 72.7574C62.378 74.714 62.5535 76.6892 62.318 78.6996C61.7452 83.5957 59.3086 87.3778 55.4332 90.2448C53.8835 91.3916 52.2437 92.4167 50.6432 93.4979C45.7262 96.8213 44.3959 100.718 46.2435 106.386C46.2874 106.525 46.3267 106.663 46.426 107C43.9155 105.876 42.0817 104.24 40.6845 102.089C39.2087 99.8193 38.5066 97.3081 38.4696 94.5909C38.4511 93.2686 38.4511 91.9345 38.2733 90.6309C37.8391 87.4527 36.3471 86.0297 33.5364 85.9478C30.6518 85.8636 28.37 87.6469 27.7649 90.4554C27.7187 90.6707 27.6517 90.8837 27.5847 91.1341L27.5894 91.1365Z" fill="#F041FF"/>
      <path d="M0 69.5866C0 69.5866 14.3139 62.6137 28.6678 62.6137L39.4901 29.1204C39.8953 27.5007 41.0783 26.3999 42.4139 26.3999C43.7495 26.3999 44.9325 27.5007 45.3377 29.1204L56.1601 62.6137C73.1601 62.6137 84.8278 69.5866 84.8278 69.5866C84.8278 69.5866 60.5145 3.35233 60.467 3.21944C59.7692 1.2612 58.5911 0 57.0029 0H27.8274C26.2392 0 25.1087 1.2612 24.3634 3.21944C24.3108 3.34983 0 69.5866 0 69.5866Z" fill="currentColor"/>
    </symbol>

    <!-- nvm icon -->
    <symbol id="nvm" viewBox="0 0 512 172" style="enable-background:new 0 0 568 200" >
      <path d="M511.712 110.871v46.676c0 6.34-2.21 7.588-7.78 4.418-11.14-6.338-22.281-12.773-33.422-19.016-4.034-2.209-5.858-5.186-5.762-9.892.192-13.734 0-27.372.096-41.106 0-4.898-1.729-8.26-6.147-10.564-4.418-2.305-8.74-4.899-12.966-7.396-3.169-1.92-6.338-2.016-9.508-.096-4.802 2.786-9.7 5.57-14.598 8.356-2.881 1.633-4.13 3.842-4.13 7.3.096 22.569 0 45.042-.096 67.612 0 6.915-2.113 8.068-8.163 4.61-11.045-6.339-21.994-12.677-33.134-18.824-4.034-2.209-5.859-5.186-5.763-9.892.192-13.734 0-27.372.096-41.106 0-4.898-1.729-8.26-6.147-10.564-4.321-2.21-8.547-4.706-12.677-7.204-3.554-2.208-6.915-2.112-10.565.097-4.13 2.497-8.355 4.994-12.677 7.299-4.226 2.209-6.05 5.474-5.955 10.18.193 13.926 0 27.948.096 41.874 0 4.226-1.536 7.011-5.186 9.028-11.62 6.53-23.146 13.254-34.767 19.784-4.61 2.594-7.107 1.153-7.107-4.13 0-31.597 0-63.29-.096-94.888 0-3.842 1.537-6.627 4.898-8.548a34805.895 34805.895 0 0 0 61.275-35.15c3.361-1.922 6.53-1.922 9.892.095 13.158 7.587 26.411 15.079 39.569 22.762 2.017 1.152 3.361 1.152 5.378 0 12.774-7.491 25.74-14.694 38.513-22.282 4.13-2.4 7.683-2.497 11.909 0 19.784 11.525 39.761 22.954 59.642 34.287 3.937 2.209 5.57 5.282 5.57 9.7-.096 15.559 0 31.118 0 46.676h-.288v-.096ZM.1 110.583c0-15.27.096-30.637-.096-45.908C-.092 59.873 1.636 56.8 5.862 54.4c20.073-11.429 40.05-22.954 59.93-34.479 3.65-2.113 6.819-2.209 10.469-.096A7514.063 7514.063 0 0 0 136.575 54.4c3.937 2.209 5.666 5.186 5.666 9.7-.096 31.118-.096 62.235-.192 93.448 0 6.34-2.305 7.684-7.78 4.61-11.236-6.434-22.473-12.965-33.806-19.208-3.746-2.113-5.57-4.898-5.474-9.316.192-13.83 0-27.66.096-41.49.096-4.898-1.633-8.355-6.05-10.564-4.515-2.305-8.933-4.994-13.35-7.588-3.074-1.824-6.051-1.824-9.22 0-4.707 2.786-9.413 5.57-14.215 8.164-3.745 2.017-5.09 5.09-5.09 9.22.096 13.926-.096 27.948.096 41.874.096 4.706-1.729 7.683-5.762 9.892-11.237 6.243-22.282 12.678-33.423 19.016-5.474 3.17-7.875 1.825-7.875-4.418 0-15.75 0-31.405-.096-47.156Z" fill="#333"/>
      <path d="M148.186 62.33a1 1 0 0 1 .874.498l2.782 4.781 11.756-.08-.622-1.12a1 1 0 0 1 .74-1.476l.117-.009 5.474-.096a1 1 0 0 1 .881.495l5.014 8.583 1.305 2.457 15.444-2.114a1 1 0 0 1 .934.389l.067.1 3.84 6.627 1.73 2.976 16.71 28.716a1 1 0 0 1 .009.992L194.4 151.313a1 1 0 0 1-1.717.048l-55.608-87.397a1 1 0 0 1 .835-1.537l10.276-.096Zm36.004-8.643a1 1 0 0 1 .874.479l5.283 8.643a1 1 0 0 1-.834 1.522l-9.508.192a1 1 0 0 1-.867-.468l-2.299-3.662h-3.577a1 1 0 0 1-.77-.363l-.076-.104-2.785-4.417a1 1 0 0 1 .825-1.534l13.734-.288Zm-41.004-13.734a1 1 0 0 1 .88.5l.758 1.306 5.55-.173a1 1 0 0 1 .819.385l.068.098 6.146 10.18a1 1 0 0 1-.837 1.517l-10.084.192a1 1 0 0 1-.877-.485l-3.167-5.278H140.8a1 1 0 0 1-.78-.373l-.074-.106-3.745-6.146a1 1 0 0 1 .838-1.52l6.147-.097Zm16.126-11.524a1 1 0 0 1 .872.47l1.138 1.821 8.076-.179a1 1 0 0 1 .812.386l.067.097L177 42.165a1 1 0 0 1-.84 1.517l-11.14.192a1 1 0 0 1-.871-.48l-3.737-6.137-4.707.086a1 1 0 0 1-.794-.369l-.076-.107-4.13-6.723a1 1 0 0 1 .827-1.523l7.78-.192Zm-29.003 1.728a1 1 0 0 1 .878.482l2.21 3.65a1 1 0 0 1-.833 1.517l-4.226.096a1 1 0 0 1-.879-.482l-2.208-3.65a1 1 0 0 1 .832-1.517l4.226-.096Zm12.953-2.593a1 1 0 0 1 .891.483l2.786 4.61a1 1 0 0 1-.82 1.516l-5.379.192a1 1 0 0 1-.892-.482l-2.785-4.61a1 1 0 0 1 .82-1.516l5.379-.193Zm-11.7-8.74a1 1 0 0 1 .87.476l3.073 4.994a1 1 0 0 1-.832 1.524l-5.09.096a1 1 0 0 1-.871-.476l-3.073-4.994a1 1 0 0 1 .832-1.524l5.09-.096Zm28.71-3.265a1 1 0 0 1 .881.483l3.938 6.531a1 1 0 0 1-.83 1.516l-7.492.192a1 1 0 0 1-.882-.483l-3.938-6.53a1 1 0 0 1 .83-1.517l7.492-.192Zm-17.95-5.282a1 1 0 0 1 .871.483l3.65 6.05a1 1 0 0 1-.84 1.517l-6.051.096a1 1 0 0 1-.872-.483l-3.65-6.051a1 1 0 0 1 .84-1.516l6.051-.096Zm-15.187-8.452a1 1 0 0 1 .88.477l1.825 2.978a1 1 0 0 1-.825 1.522l-3.457.096a1 1 0 0 1-.88-.477l-1.826-2.978a1 1 0 0 1 .825-1.522l3.458-.096ZM153.07 0a1 1 0 0 1 .878.482l2.21 3.65a1 1 0 0 1-.834 1.517l-4.226.096a1 1 0 0 1-.878-.482l-2.209-3.65a1 1 0 0 1 .833-1.517L153.071 0Z" fill="#333"/>
      <path d="M227.718 68.997c4.418-7.587 8.836-15.174 13.157-22.762.96-1.632 2.113-2.305 4.034-2.305 12.87.097 25.74 0 38.513 0 3.65 0 4.61 1.441 3.073 4.803-4.034 6.818-8.164 13.541-11.813 20.552-4.322 7.396-8.644 14.695-12.966 22.09-9.508 16.519-19.016 33.038-28.62 49.461-4.706 7.876-9.316 15.75-14.694 23.242-1.153 1.633-2.401 3.266-3.746 4.706-3.457 3.65-6.339 3.65-9.796-.096-1.633-1.729-6.915-9.412-4.13-4.898-4.514-7.107-9.988-15.175-14.502-22.282 1.44-3.361 17.287-31.981 21.417-39.184.48-.48 14.022-22.858 20.073-33.327Z" fill="#F4DD4B"/>
      <path d="m186.324 141.508 21.897-40.24-5.954-9.99"/>
    </symbol>
  </defs>
</svg>