<svg xmlns="http://www.w3.org/2000/svg">
  <defs>

    <!-- tailwind icon -->
    <symbol id="tailwind" viewBox="0 0 47 40" fill="none">
      <path fill="#3ebff8" d="M23.5 6.5C17.5 6.5 13.75 9.5 12.25 15.5C14.5 12.5 17.125 11.375 20.125 12.125C21.8367 12.5529 23.0601 13.7947 24.4142 15.1692C26.6202 17.4084 29.1734 20 34.75 20C40.75 20 44.5 17 46 11C43.75 14 41.125 15.125 38.125 14.375C36.4133 13.9471 35.1899 12.7053 33.8357 11.3308C31.6297 9.09158 29.0766 6.5 23.5 6.5ZM12.25 20C6.25 20 2.5 23 1 29C3.25 26 5.875 24.875 8.875 25.625C10.5867 26.0529 11.8101 27.2947 13.1642 28.6693C15.3702 30.9084 17.9234 33.5 23.5 33.5C29.5 33.5 33.25 30.5 34.75 24.5C32.5 27.5 29.875 28.625 26.875 27.875C25.1633 27.4471 23.9399 26.2053 22.5858 24.8307C20.3798 22.5916 17.8266 20 12.25 20Z"/>
    </symbol>

    <!-- astro icon -->
    <symbol id="astro" viewBox="0 0 85 107">
      <path d="M27.5894 91.1365C22.7555 86.7178 21.3444 77.4335 23.3583 70.7072C26.8503 74.948 31.6888 76.2914 36.7005 77.0497C44.4375 78.2199 52.0359 77.7822 59.2232 74.2459C60.0454 73.841 60.8052 73.3027 61.7036 72.7574C62.378 74.714 62.5535 76.6892 62.318 78.6996C61.7452 83.5957 59.3086 87.3778 55.4332 90.2448C53.8835 91.3916 52.2437 92.4167 50.6432 93.4979C45.7262 96.8213 44.3959 100.718 46.2435 106.386C46.2874 106.525 46.3267 106.663 46.426 107C43.9155 105.876 42.0817 104.24 40.6845 102.089C39.2087 99.8193 38.5066 97.3081 38.4696 94.5909C38.4511 93.2686 38.4511 91.9345 38.2733 90.6309C37.8391 87.4527 36.3471 86.0297 33.5364 85.9478C30.6518 85.8636 28.37 87.6469 27.7649 90.4554C27.7187 90.6707 27.6517 90.8837 27.5847 91.1341L27.5894 91.1365Z" fill="#F041FF"/>
      <path d="M0 69.5866C0 69.5866 14.3139 62.6137 28.6678 62.6137L39.4901 29.1204C39.8953 27.5007 41.0783 26.3999 42.4139 26.3999C43.7495 26.3999 44.9325 27.5007 45.3377 29.1204L56.1601 62.6137C73.1601 62.6137 84.8278 69.5866 84.8278 69.5866C84.8278 69.5866 60.5145 3.35233 60.467 3.21944C59.7692 1.2612 58.5911 0 57.0029 0H27.8274C26.2392 0 25.1087 1.2612 24.3634 3.21944C24.3108 3.34983 0 69.5866 0 69.5866Z" fill="currentColor"/>
    </symbol>

    <!-- firebase icon -->
    <symbol id="firebase" viewBox="0 0 600 600">
      <path d="M213.918 560.499c23.248 9.357 48.469 14.909 74.952 15.834 35.84 1.252 69.922-6.158 100.391-20.234-36.537-14.355-69.627-35.348-97.869-61.448-18.306 29.31-45.382 52.462-77.474 65.848Z" fill="#FF9100"/>
      <path d="M291.389 494.66c-64.466-59.622-103.574-145.917-100.269-240.568.108-3.073.27-6.145.46-9.216a166.993 166.993 0 0 0-36.004-5.241 167.001 167.001 0 0 0-51.183 6.153c-17.21 30.145-27.594 64.733-28.888 101.781-3.339 95.611 54.522 179.154 138.409 212.939 32.093-13.387 59.168-36.51 77.475-65.848Z" fill="#FFC400"/>
      <path d="M291.39 494.657c14.988-23.986 24.075-52.106 25.133-82.403 2.783-79.695-50.792-148.251-124.942-167.381-.19 3.071-.352 6.143-.46 9.216-3.305 94.651 35.803 180.946 100.269 240.568Z" fill="#FF9100"/>
      <path d="M308.231 20.858C266 54.691 232.652 99.302 212.475 150.693c-11.551 29.436-18.81 61.055-20.929 94.2 74.15 19.13 127.726 87.686 124.943 167.38-1.058 30.297-10.172 58.39-25.134 82.404 28.24 26.127 61.331 47.093 97.868 61.447 73.337-33.9 125.37-106.846 128.383-193.127 1.952-55.901-19.526-105.724-49.875-147.778-32.051-44.477-159.5-194.36-159.5-194.36Z" fill="#DD2C00"/>
    </symbol>

    <!-- aws icon -->
    <symbol id="aws" viewBox="0 0 16 16">
      <path fill="#252F3E" d="M4.51 7.687c0 .197.02.357.058.475.042.117.096.245.17.384a.233.233 0 0 1 .037.123c0 .053-.032.107-.1.16l-.336.224a.255.255 0 0 1-.138.048c-.054 0-.107-.026-.16-.074a1.652 1.652 0 0 1-.192-.251 4.137 4.137 0 0 1-.165-.315c-.415.491-.936.737-1.564.737-.447 0-.804-.129-1.064-.385-.261-.256-.394-.598-.394-1.025 0-.454.16-.822.484-1.1.325-.278.756-.416 1.304-.416.18 0 .367.016.564.042.197.027.4.07.612.118v-.39c0-.406-.085-.689-.25-.854-.17-.166-.458-.246-.868-.246-.186 0-.377.022-.574.07a4.23 4.23 0 0 0-.575.181 1.525 1.525 0 0 1-.186.07.326.326 0 0 1-.085.016c-.075 0-.112-.054-.112-.166v-.262c0-.085.01-.15.037-.186a.399.399 0 0 1 .15-.113c.185-.096.409-.176.67-.24.26-.07.537-.101.83-.101.633 0 1.096.144 1.394.432.293.288.442.726.442 1.314v1.73h.01zm-2.161.811c.175 0 .356-.032.548-.096.191-.064.362-.182.505-.342a.848.848 0 0 0 .181-.341c.032-.129.054-.283.054-.465V7.03a4.43 4.43 0 0 0-.49-.09 3.996 3.996 0 0 0-.5-.033c-.357 0-.618.07-.793.214-.176.144-.26.347-.26.614 0 .25.063.437.196.566.128.133.314.197.559.197zm4.273.577c-.096 0-.16-.016-.202-.054-.043-.032-.08-.106-.112-.208l-1.25-4.127a.938.938 0 0 1-.049-.214c0-.085.043-.133.128-.133h.522c.1 0 .17.016.207.053.043.032.075.107.107.208l.894 3.535.83-3.535c.026-.106.058-.176.1-.208a.365.365 0 0 1 .214-.053h.425c.102 0 .17.016.213.053.043.032.08.107.101.208l.841 3.578.92-3.578a.458.458 0 0 1 .107-.208.346.346 0 0 1 .208-.053h.495c.085 0 .133.043.133.133 0 .027-.006.054-.01.086a.76.76 0 0 1-.038.133l-1.283 4.127c-.032.107-.069.177-.111.209a.34.34 0 0 1-.203.053h-.457c-.101 0-.17-.016-.213-.053-.043-.038-.08-.107-.101-.214L8.213 5.37l-.82 3.439c-.026.107-.058.176-.1.213-.043.038-.118.054-.213.054h-.458zm6.838.144a3.51 3.51 0 0 1-.82-.096c-.266-.064-.473-.134-.612-.214-.085-.048-.143-.101-.165-.15a.378.378 0 0 1-.031-.149v-.272c0-.112.042-.166.122-.166a.3.3 0 0 1 .096.016c.032.011.08.032.133.054.18.08.378.144.585.187.213.042.42.064.633.064.336 0 .596-.059.777-.176a.575.575 0 0 0 .277-.508.52.52 0 0 0-.144-.373c-.095-.102-.276-.193-.537-.278l-.772-.24c-.388-.123-.676-.305-.851-.545a1.275 1.275 0 0 1-.266-.774c0-.224.048-.422.143-.593.096-.17.224-.32.384-.438a1.7 1.7 0 0 1 .553-.277c.213-.064.436-.091.67-.091.118 0 .24.005.357.021a3.4 3.4 0 0 1 .649.145c.096.032.17.064.224.096a.46.46 0 0 1 .16.133.289.289 0 0 1 .047.176v.251c0 .112-.042.171-.122.171a.552.552 0 0 1-.202-.064 2.427 2.427 0 0 0-1.022-.208c-.303 0-.543.048-.708.15-.165.1-.25.256-.25.475 0 .149.053.277.16.379.106.101.303.202.585.293l.756.24c.383.123.66.294.825.513.165.219.244.47.244.748 0 .23-.047.437-.138.619a1.436 1.436 0 0 1-.388.47c-.165.133-.362.23-.591.299a2.52 2.52 0 0 1-.761.112z"/>
      <g fill="#F90" fill-rule="evenodd" clip-rule="evenodd">
      <path d="M14.465 11.813c-1.75 1.297-4.294 1.986-6.481 1.986-3.065 0-5.827-1.137-7.913-3.027-.165-.15-.016-.353.18-.235 2.257 1.313 5.04 2.109 7.92 2.109 1.941 0 4.075-.406 6.039-1.239.293-.133.543.192.255.406z"/>
      <path d="M15.194 10.98c-.223-.287-1.479-.138-2.048-.069-.17.022-.197-.128-.043-.24 1-.705 2.645-.502 2.836-.267.192.24-.053 1.89-.99 2.68-.143.123-.281.06-.218-.1.213-.53.687-1.72.463-2.003z"/>
      </g>
    </symbol>

    <!-- linux icon -->
    <symbol id="linux" viewBox="0 0 16 16">
      <path fill="#202020" d="M13.338 12.033c-.1-.112-.146-.319-.197-.54-.05-.22-.107-.457-.288-.61v-.001a.756.756 0 0 0-.223-.134c.252-.745.153-1.487-.1-2.157-.312-.823-.855-1.54-1.27-2.03-.464-.586-.918-1.142-.91-1.963.014-1.254.138-3.579-2.068-3.582-.09 0-.183.004-.28.012-2.466.198-1.812 2.803-1.849 3.675-.045.638-.174 1.14-.613 1.764-.515.613-1.24 1.604-1.584 2.637-.162.487-.24.984-.168 1.454a.762.762 0 0 0-.064.063c-.151.161-.263.357-.388.489-.116.116-.282.16-.464.225-.183.066-.383.162-.504.395v.001a.702.702 0 0 0-.077.339c0 .108.016.217.032.322.034.22.068.427.023.567-.144.395-.163.667-.061.865.102.199.31.286.547.335.473.1 1.114.075 1.619.342l.043-.082-.043.082c.54.283 1.089.383 1.526.284a.99.99 0 0 0 .706-.552c.342-.002.717-.146 1.318-.18.408-.032.918.145 1.503.113a.806.806 0 0 0 .068.183l.001.001c.227.455.65.662 1.1.627.45-.036.928-.301 1.315-.762l-.07-.06.07.06c.37-.448.982-.633 1.388-.878.203-.123.368-.276.38-.499.013-.222-.118-.471-.418-.805z"/>
      <path fill="#F8BF11" d="M13.571 12.828c-.007.137-.107.24-.29.35-.368.222-1.019.414-1.434.918-.362.43-.802.665-1.19.696-.387.03-.721-.13-.919-.526v-.002c-.123-.233-.072-.6.031-.987s.251-.785.271-1.108v-.001c.02-.415.044-.776.114-1.055.07-.28.179-.468.373-.575a.876.876 0 0 1 .027-.014c.022.359.2.725.514.804.343.09.838-.204 1.047-.445l.122-.004c.184-.005.337.006.495.143v.001c.121.102.179.296.229.512.05.217.09.453.239.621.287.32.38.534.371.672zm-6.979 1.015v.003c-.034.435-.28.672-.656.758-.377.086-.888 0-1.398-.266-.565-.3-1.237-.27-1.667-.36-.216-.045-.357-.113-.421-.238-.064-.126-.066-.345.071-.72v-.001l.001-.002c.068-.209.018-.438-.015-.653-.033-.214-.049-.41.024-.546l.001-.001c.094-.181.232-.246.403-.307.17-.062.373-.11.533-.27l.001-.001h.001c.148-.157.26-.353.39-.492.11-.117.22-.195.385-.196h.005a.61.61 0 0 1 .093.008c.22.033.411.187.596.437l.533.971v.001c.142.296.441.622.695.954.254.333.45.666.425.921z"/>
      <path fill="#D6A312" d="M9.25 4.788c-.043-.084-.13-.164-.28-.225-.31-.133-.444-.142-.617-.254-.28-.181-.513-.244-.706-.244a.834.834 0 0 0-.272.047c-.236.08-.392.25-.49.342-.02.019-.044.035-.104.08-.06.043-.15.11-.28.208-.117.086-.154.2-.114.332.04.132.167.285.4.417h.001c.145.085.244.2.358.291a.801.801 0 0 0 .189.117.756.756 0 0 0 .26.058c.248.015.43-.06.59-.151.16-.092.296-.204.452-.255h.001c.32-.1.548-.301.62-.493a.324.324 0 0 0-.008-.27z"/>
      <path fill="#202020" d="M8.438 5.26c-.255.133-.552.294-.869.294-.316 0-.566-.146-.745-.289-.09-.07-.163-.142-.218-.193-.096-.075-.084-.181-.045-.178.066.008.076.095.117.134.056.052.126.12.211.187.17.135.397.266.68.266.284 0 .614-.166.816-.28.115-.064.26-.179.379-.266.09-.067.087-.147.162-.138.075.009.02.089-.085.18-.105.092-.27.214-.403.283z"/>
      <path fill="#fff" d="M12.337 10.694a1.724 1.724 0 0 0-.104 0h-.01c.088-.277-.106-.48-.621-.713-.534-.235-.96-.212-1.032.265a.632.632 0 0 0-.011.076.801.801 0 0 0-.12.054c-.252.137-.389.386-.465.692-.076.305-.098.674-.119 1.09-.013.208-.099.49-.186.79-.875.624-2.09.894-3.122.19-.07-.11-.15-.22-.233-.328a13.85 13.85 0 0 0-.16-.205.65.65 0 0 0 .268-.05.34.34 0 0 0 .186-.192c.063-.17 0-.408-.202-.68-.201-.273-.542-.58-1.043-.888-.368-.23-.574-.51-.67-.814-.097-.305-.084-.635-.01-.96.143-.625.51-1.233.743-1.614.063-.046.023.086-.236.567-.232.44-.667 1.455-.072 2.248a4.69 4.69 0 0 1 .377-1.677c.329-.747 1.018-2.041 1.072-3.073.029.02.125.086.169.11.126.075.221.184.344.283a.85.85 0 0 0 .575.2c.24 0 .427-.079.582-.168.17-.096.304-.204.433-.245.27-.085.486-.235.608-.41.21.83.7 2.027 1.014 2.611.167.31.5.969.643 1.762.091-.002.191.01.299.038.375-.973-.319-2.022-.636-2.314-.128-.124-.135-.18-.07-.177.343.304.795.917.96 1.608.075.315.09.646.01.973.04.017.08.034.12.054.603.293.826.548.719.897z"/>
      <path fill="#E6E6E6" d="M8.04 8.062c-.556.002-1.099.251-1.558.716-.46.464-.814 1.122-1.018 1.888l.061.038v.004c.47.298.805.598 1.012.878.219.296.316.584.223.834a.513.513 0 0 1-.27.283l-.041.015c.074.097.146.197.213.3.944.628 2.042.396 2.867-.172.08-.278.153-.536.163-.698.021-.415.042-.792.124-1.12.082-.33.242-.63.544-.795.017-.01.034-.015.051-.023a.756.756 0 0 1 .022-.094c-.242-.622-.591-1.14-1.01-1.5-.42-.36-.897-.551-1.382-.554zm2.37 2.155-.002.005v-.002l.001-.004z"/>
      <path fill="#fff" d="M9.278 3.833a1.05 1.05 0 0 1-.215.656 4.119 4.119 0 0 0-.218-.09l-.127-.045c.029-.035.085-.075.107-.127a.669.669 0 0 0 .05-.243l.001-.01a.673.673 0 0 0-.035-.236.434.434 0 0 0-.108-.184.223.223 0 0 0-.156-.07H8.57a.228.228 0 0 0-.151.06.434.434 0 0 0-.122.175.676.676 0 0 0-.05.243v.01a.718.718 0 0 0 .009.14 1.773 1.773 0 0 0-.354-.12 1.196 1.196 0 0 1-.01-.133v-.013a1.035 1.035 0 0 1 .088-.447.793.793 0 0 1 .25-.328.554.554 0 0 1 .346-.123h.006c.125 0 .232.036.342.116a.78.78 0 0 1 .257.324c.063.138.094.273.097.433l.001.012zm-1.89.164a1.05 1.05 0 0 0-.277.125.623.623 0 0 0 .002-.15v-.008a.651.651 0 0 0-.048-.192.37.37 0 0 0-.096-.141.158.158 0 0 0-.119-.045.156.156 0 0 0-.11.065.372.372 0 0 0-.07.156.626.626 0 0 0-.013.205v.008a.634.634 0 0 0 .048.193.367.367 0 0 0 .116.156l-.102.08-.078.056a.706.706 0 0 1-.16-.24 1.06 1.06 0 0 1-.09-.381v-.001a1.071 1.071 0 0 1 .045-.39.668.668 0 0 1 .167-.292.359.359 0 0 1 .264-.118.36.36 0 0 1 .235.09.68.68 0 0 1 .199.271c.053.12.08.24.089.382v.001c.003.06.003.115-.002.17z"/>
      <path fill="#202020" d="M7.806 4.335c.01.034.065.029.097.045.027.014.05.045.08.046.03.001.076-.01.08-.04.005-.038-.052-.063-.088-.077-.047-.019-.107-.028-.151-.003-.01.005-.021.018-.018.03zm-.322 0c-.01.034-.065.029-.096.045-.028.014-.05.045-.081.046-.03.001-.076-.01-.08-.04-.005-.038.052-.063.088-.077.047-.019.108-.028.152-.003.01.005.02.018.017.03z"/>
    </symbol>

    <!-- figma icon -->
    <symbol id="figma" viewBox="0 0 32 32">
      <g fill-rule="evenodd" clip-rule="evenodd">
      <path d="M16 16a4 4 0 1 1 8 0 4 4 0 0 1-8 0Z" fill="#1ABCFE"/>
      <path d="M8 24a4 4 0 0 1 4-4h4v4a4 4 0 0 1-8 0Z" fill="#0ACF83"/>
      <path d="M16 4v8h4a4 4 0 0 0 0-8h-4Z" fill="#FF7262"/>
      <path d="M8 8a4 4 0 0 0 4 4h4V4h-4a4 4 0 0 0-4 4Z" fill="#F24E1E"/>
      <path d="M8 16a4 4 0 0 0 4 4h4v-8h-4a4 4 0 0 0-4 4Z" fill="#A259FF"/>
      </g>
    </symbol>

    <!-- bun icon -->
    <symbol id="bun" viewBox="0 0 80 70">
      <path d="M71.09 20.74c-.16-.17-.33-.34-.5-.5s-.33-.34-.5-.5-.33-.34-.5-.5-.33-.34-.5-.5-.33-.34-.5-.5-.33-.34-.5-.5-.33-.34-.5-.5A26.46 26.46 0 0 1 75.5 35.7c0 16.57-16.82 30.05-37.5 30.05-11.58 0-21.94-4.23-28.83-10.86l.5.5.5.5.5.5.5.5.5.5.5.5.5.5C19.55 65.3 30.14 69.75 42 69.75c20.68 0 37.5-13.48 37.5-30 0-7.06-3.04-13.75-8.41-19.01Z"/>
      <path d="M73 35.7c0 15.21-15.67 27.54-35 27.54S3 50.91 3 35.7C3 26.27 9 17.94 18.22 13S33.18 3 38 3s8.94 4.13 19.78 10C67 17.94 73 26.27 73 35.7Z" style="fill:#fbf0df"/>
      <path data-name="Bottom Shadow" d="M73 35.7a21.67 21.67 0 0 0-.8-5.78c-2.73 33.3-43.35 34.9-59.32 24.94A40 40 0 0 0 38 63.24c19.3 0 35-12.35 35-27.54Z" style="fill:#f6dece"/>
      <path data-name="Light Shine" d="M24.53 11.17C29 8.49 34.94 3.46 40.78 3.45A9.29 9.29 0 0 0 38 3c-2.42 0-5 1.25-8.25 3.13-1.13.66-2.3 1.39-3.54 2.15-2.33 1.44-5 3.07-8 4.7C8.69 18.13 3 26.62 3 35.7v1.19c6.06-21.41 17.07-23.04 21.53-25.72Z" style="fill:#fffefc"/>
      <path d="M35.12 5.53A16.41 16.41 0 0 1 29.49 18c-.28.25-.06.73.3.59 3.37-1.31 7.92-5.23 6-13.14-.08-.45-.67-.33-.67.08Zm2.27 0A16.24 16.24 0 0 1 39 19c-.12.35.31.65.55.36 2.19-2.8 4.1-8.36-1.62-14.36-.29-.26-.74.14-.54.49Zm2.76-.17A16.42 16.42 0 0 1 47 17.12a.33.33 0 0 0 .65.11c.92-3.49.4-9.44-7.17-12.53-.4-.16-.66.38-.33.62Zm-18.46 10.4a16.94 16.94 0 0 0 10.47-9c.18-.36.75-.22.66.18-1.73 8-7.52 9.67-11.12 9.45-.38.01-.37-.52-.01-.63Z" style="fill:#ccbea7;fill-rule:evenodd"/>
      <path d="M38 65.75C17.32 65.75.5 52.27.5 35.7c0-10 6.18-19.33 16.53-24.92 3-1.6 5.57-3.21 7.86-4.62 1.26-.78 2.45-1.51 3.6-2.19C32 1.89 35 .5 38 .5s5.62 1.2 8.9 3.14c1 .57 2 1.19 3.07 1.87 2.49 1.54 5.3 3.28 9 5.27C69.32 16.37 75.5 25.69 75.5 35.7c0 16.57-16.82 30.05-37.5 30.05ZM38 3c-2.42 0-5 1.25-8.25 3.13-1.13.66-2.3 1.39-3.54 2.15-2.33 1.44-5 3.07-8 4.7C8.69 18.13 3 26.62 3 35.7c0 15.19 15.7 27.55 35 27.55S73 50.89 73 35.7c0-9.08-5.69-17.57-15.22-22.7-3.78-2-6.73-3.88-9.12-5.36-1.09-.67-2.09-1.29-3-1.84C42.63 4 40.42 3 38 3Z"/>
      <path d="M45.05 43a8.93 8.93 0 0 1-2.92 4.71 6.81 6.81 0 0 1-4 1.88A6.84 6.84 0 0 1 34 47.71 8.93 8.93 0 0 1 31.12 43a.72.72 0 0 1 .8-.81h12.34a.72.72 0 0 1 .79.81Z" style="fill:#b71422" data-name="Background"/>
      <path data-name="Background" d="M34 47.79a6.91 6.91 0 0 0 4.12 1.9 6.91 6.91 0 0 0 4.11-1.9 10.63 10.63 0 0 0 1-1.07 6.83 6.83 0 0 0-4.9-2.31 6.15 6.15 0 0 0-5 2.78c.23.21.43.41.67.6Z" style="fill:#ff6164"/>
      <path data-name="Outline" d="M34.16 47a5.36 5.36 0 0 1 4.19-2.08 6 6 0 0 1 4 1.69c.23-.25.45-.51.66-.77a7 7 0 0 0-4.71-1.93 6.36 6.36 0 0 0-4.89 2.36 9.53 9.53 0 0 0 .75.73Z"/>
      <path data-name="Outline" d="M38.09 50.19a7.42 7.42 0 0 1-4.45-2 9.52 9.52 0 0 1-3.11-5.05 1.2 1.2 0 0 1 .26-1 1.41 1.41 0 0 1 1.13-.51h12.34a1.44 1.44 0 0 1 1.13.51 1.19 1.19 0 0 1 .25 1 9.52 9.52 0 0 1-3.11 5.05 7.42 7.42 0 0 1-4.44 2Zm-6.17-7.4c-.16 0-.2.07-.21.09a8.29 8.29 0 0 0 2.73 4.37A6.23 6.23 0 0 0 38.09 49a6.28 6.28 0 0 0 3.65-1.73 8.3 8.3 0 0 0 2.72-4.37.21.21 0 0 0-.2-.09Z"/>
      <ellipse data-name="Right Blush" cx="53.22" cy="40.18" rx="5.85" ry="3.44" style="fill:#febbd0"/>
      <ellipse data-name="Left Bluch" cx="22.95" cy="40.18" rx="5.85" ry="3.44" style="fill:#febbd0"/>
      <path d="M25.7 38.8a5.51 5.51 0 1 0-5.5-5.51 5.51 5.51 0 0 0 5.5 5.51Zm24.77 0A5.51 5.51 0 1 0 45 33.29a5.5 5.5 0 0 0 5.47 5.51Z" style="fill-rule:evenodd"/>
      <path d="M24 33.64a2.07 2.07 0 1 0-2.06-2.07A2.07 2.07 0 0 0 24 33.64Zm24.77 0a2.07 2.07 0 1 0-2.06-2.07 2.07 2.07 0 0 0 2.04 2.07Z" style="fill:#fff;fill-rule:evenodd"/>
    </symbol>

  </defs>
</svg>